<svg version="1.1" id="Layer_1" xmlns="http://www.w3.org/2000/svg" xmlns:xlink="http://www.w3.org/1999/xlink" x="0px" y="0px"
	 width="100%" viewBox="0 0 512 512" enable-background="new 0 0 512 512" xml:space="preserve">
<path fill="#F9FAFB" opacity="1.000000" stroke="none" 
	d="
M1.000000,132.000000 
	C1.000000,88.000000 1.000000,44.500000 1.000000,1.000000 
	C171.666672,1.000000 342.333344,1.000000 513.000000,1.000000 
	C513.000000,171.666672 513.000000,342.333344 513.000000,513.000000 
	C342.333344,513.000000 171.666672,513.000000 1.000000,513.000000 
	C1.000000,386.166656 1.000000,259.333344 1.000000,132.000000 
M220.013504,69.614662 
	C220.324280,69.797279 220.635040,69.979904 221.346359,70.744720 
	C231.476791,75.398384 239.092316,70.371674 238.572891,58.970352 
	C236.882401,58.970352 235.173233,58.970352 233.383484,58.970352 
	C233.219803,59.897282 233.041916,60.536682 233.003265,61.184387 
	C232.781662,64.897850 230.538071,66.609009 227.115677,66.551567 
	C223.374680,66.488777 222.777512,63.846992 222.734665,60.648800 
	C222.612366,51.522846 222.223740,42.400623 222.079178,33.274727 
	C222.017868,29.404181 222.799133,25.508543 227.593018,25.294901 
	C231.954788,25.100519 232.848022,28.548210 233.037354,32.160683 
	C233.061096,32.613506 233.358063,33.052013 233.667618,33.860737 
	C235.360977,33.769386 237.078445,33.676735 238.733154,33.587467 
	C239.167603,24.699532 236.244843,20.676859 229.289627,19.969503 
	C222.124527,19.240801 217.951401,22.252602 216.360001,29.618460 
	C216.278397,38.687099 216.125885,47.755989 216.158310,56.824226 
	C216.168060,59.555744 216.691818,62.285427 216.996689,65.601601 
	C217.295059,66.080521 217.593445,66.559433 218.033798,67.637077 
	C218.644730,68.151909 219.255676,68.666740 219.911636,69.099922 
	C219.911636,69.099922 219.818420,69.097786 220.013504,69.614662 
M301.949280,268.271545 
	C301.917358,267.501984 301.885406,266.732452 301.918549,265.032684 
	C301.284576,253.354324 300.650635,241.675980 300.056091,229.081863 
	C301.104736,219.202148 298.001312,211.293549 289.330231,205.842377 
	C287.317261,204.576935 284.527313,202.980179 284.082947,201.072708 
	C282.590607,194.666779 281.996338,188.051636 281.833008,181.261246 
	C285.684937,180.910751 287.302032,178.937881 286.910217,174.977844 
	C286.600372,171.846176 286.794586,168.662979 286.794220,165.502655 
	C286.792786,153.742004 286.797302,153.742004 275.150787,153.052689 
	C274.686737,148.294296 272.688660,144.390991 269.637238,140.620087 
	C267.370087,137.818283 265.586670,134.084976 265.060730,130.547592 
	C264.364410,125.864090 264.878357,120.947731 265.283783,116.166359 
	C265.825256,109.781357 260.345032,102.577431 254.444107,102.384239 
	C248.523972,102.190407 243.074371,107.914490 243.021591,114.485985 
	C242.980194,119.640366 243.506516,124.847885 242.919083,129.932266 
	C242.526199,133.332703 240.784882,136.630356 239.357407,139.845444 
	C237.379745,144.299713 235.130066,148.633224 232.249069,153.336365 
	C230.969757,153.519608 229.693314,153.835449 228.410629,153.863342 
	C222.575043,153.990417 221.959137,154.575516 221.940399,160.489670 
	C221.927856,164.442993 222.328903,168.438934 221.881836,172.339798 
	C221.231384,178.015228 222.991867,181.422913 228.972000,182.881790 
	C228.975021,185.700363 229.356949,188.581192 228.906158,191.325195 
	C227.795425,198.086227 226.540268,204.808655 219.620743,208.631561 
	C212.489670,212.571320 210.285019,219.562775 209.013412,227.941605 
	C209.078522,251.339935 209.143631,274.738281 209.165527,299.004883 
	C209.169098,301.332581 209.172668,303.660278 208.663132,306.219482 
	C208.745743,306.816620 208.828354,307.413757 208.903931,308.884613 
	C208.912796,310.923706 208.921661,312.962830 208.370102,315.605438 
	C208.546646,320.410248 208.723190,325.215088 208.908630,330.673492 
	C208.904816,331.109192 208.901016,331.544922 208.344711,332.605255 
	C208.226822,344.969055 208.149811,357.333466 207.973434,369.696442 
	C207.887787,375.700287 208.565689,381.163025 211.996689,386.637085 
	C216.116333,393.209839 221.972107,396.819000 228.817520,397.755371 
	C238.115036,399.027161 247.645676,398.594910 257.997223,398.962677 
	C264.447632,398.985931 270.982971,398.351257 277.330688,399.170319 
	C290.274048,400.840515 305.612183,383.912231 301.710327,369.379364 
	C301.764313,337.575439 301.818298,305.771484 301.937073,273.148315 
	C301.908813,271.777954 301.880554,270.407623 301.949280,268.271545 
M103.414352,23.123230 
	C103.020500,23.755972 102.626648,24.388712 101.973114,25.373001 
	C101.973114,25.373001 101.924850,25.807390 101.362511,26.353849 
	C101.006660,27.795528 100.358025,29.233913 100.341751,30.679415 
	C100.222008,41.315075 100.158432,51.952934 100.276466,62.587891 
	C100.292824,64.062393 101.402527,65.524765 102.229988,67.633240 
	C106.404572,72.320877 111.316795,73.690636 116.389549,71.581566 
	C120.690773,69.793274 123.048286,65.188179 122.664566,59.089905 
	C119.636009,58.527538 116.975510,57.714329 116.381989,62.577744 
	C116.186775,64.177383 113.006943,66.640549 111.381226,66.501129 
	C109.670181,66.354393 106.875374,63.611694 106.815849,61.923538 
	C106.441612,51.309635 106.487488,40.664059 106.964424,30.054569 
	C107.038933,28.397181 110.045418,25.603113 111.658630,25.629486 
	C113.374298,25.657539 115.243828,28.259344 116.648788,30.049252 
	C117.311676,30.893761 117.046097,32.467060 117.236534,33.993164 
	C119.488808,33.861168 121.351578,33.752003 123.234535,33.641651 
	C123.251762,27.308338 122.161484,22.364580 115.092842,20.256735 
	C110.931862,19.332701 106.922386,19.031824 103.998825,22.997593 
	C103.998825,22.997593 103.967293,22.942743 103.414352,23.123230 
M233.765289,486.665405 
	C233.751190,486.106567 233.737091,485.547760 233.969208,484.470917 
	C234.023743,484.096710 234.078293,483.722534 234.858170,482.694427 
	C238.427948,482.450958 241.997726,482.207520 245.990540,481.935181 
	C246.793427,485.888824 247.537079,489.550873 248.307571,493.345032 
	C250.259689,493.345032 251.969238,493.345032 254.191116,493.345032 
	C251.952118,483.647980 249.810867,474.374268 247.723190,464.311523 
	C246.403442,457.959229 245.227539,451.570953 243.652710,445.282532 
	C243.302917,443.885712 241.546860,442.841095 240.438278,441.634277 
	C239.502487,442.816681 238.044296,443.869995 237.715042,445.202301 
	C235.445404,454.385986 233.411438,463.627930 231.039108,473.186066 
	C230.928375,473.468933 230.942734,473.745300 230.777847,474.585968 
	C230.633514,475.424133 230.489182,476.262299 230.027069,477.389252 
	C230.008652,477.929321 229.990234,478.469360 229.690369,479.509644 
	C229.660095,480.074982 229.629822,480.640320 229.182846,481.706390 
	C228.908386,483.339264 228.633942,484.972168 228.060608,487.290253 
	C227.638824,489.268738 227.217041,491.247253 226.809555,493.158691 
	C233.520416,495.208099 233.149231,490.855103 233.765289,486.665405 
M306.057312,493.072632 
	C306.057312,493.072632 306.265594,493.288147 307.138611,493.059662 
	C307.333069,485.354706 307.527527,477.649750 308.124725,469.352386 
	C311.351990,460.372131 314.579254,451.391907 317.864197,442.251129 
	C313.459747,440.564789 311.171173,441.573456 310.197815,445.895813 
	C309.290405,449.925537 307.957367,453.865448 306.678040,457.801453 
	C306.326874,458.881775 305.496277,459.806244 304.885651,460.802246 
	C304.416992,460.766632 303.948334,460.731018 303.479675,460.695374 
	C302.128021,455.827026 300.530975,451.010132 299.495941,446.075348 
	C298.523651,441.439423 295.974976,440.842926 292.152710,441.864349 
	C292.089508,442.610229 291.946075,442.978210 292.051361,443.249786 
	C298.012329,458.626129 303.561340,474.075409 301.312866,491.046234 
	C300.917236,494.032410 302.667328,494.391113 305.551727,493.992065 
	C305.799103,493.746948 306.046478,493.501801 306.057312,493.072632 
M156.913467,50.504826 
	C156.861603,50.320831 156.809753,50.136841 157.018784,49.424118 
	C157.334473,49.196556 157.650162,48.968990 158.724777,48.914528 
	C159.490570,48.831928 160.256348,48.749325 161.898132,48.762367 
	C164.247086,48.745533 166.596024,48.728699 169.471237,48.819317 
	C169.649628,48.543869 169.828003,48.268425 170.199738,47.326107 
	C170.154129,46.874893 170.108521,46.423676 170.153442,45.470989 
	C170.093567,45.312035 170.033691,45.153084 170.109177,44.503376 
	C170.065109,44.339504 170.021042,44.175632 169.917480,43.475464 
	C169.596298,43.394424 169.275101,43.313385 168.041275,43.103413 
	C165.909393,43.154022 163.766083,43.083210 161.648209,43.282627 
	C158.140259,43.612942 156.485840,42.495968 156.806488,38.630249 
	C157.130951,34.718723 156.897568,30.760931 157.579987,26.444862 
	C162.269440,25.901112 166.958893,25.357361 171.988480,24.774172 
	C171.889694,23.189148 171.803772,21.810713 171.712067,20.339399 
	C164.707565,20.339399 158.122955,20.339399 151.290329,20.339399 
	C151.290329,37.636250 151.290329,54.659184 151.290329,71.898621 
	C157.385834,71.898621 163.181931,71.898621 169.487457,72.008392 
	C169.657639,71.973595 169.827835,71.938789 170.781006,71.979660 
	C170.848511,70.088150 170.916031,68.196632 170.323837,66.163368 
	C169.885345,66.248245 169.446838,66.333130 168.119858,66.208000 
	C165.077789,66.239388 162.035736,66.270775 158.231003,65.908607 
	C157.766403,64.428467 156.997543,62.968338 156.898575,61.464134 
	C156.670944,58.004116 156.769196,54.522659 156.913467,50.504826 
M415.620178,20.606436 
	C415.498291,20.337938 415.296051,20.245924 414.361511,20.055908 
	C413.896271,20.111916 413.431030,20.167925 412.066223,20.074797 
	C408.724640,20.134926 405.383087,20.195055 401.362762,20.121017 
	C400.905579,20.163525 400.448395,20.206032 399.500916,20.118782 
	C399.338867,20.166985 399.176819,20.215185 398.272797,20.137636 
	C397.526459,20.195463 396.780121,20.253292 395.251862,20.337767 
	C394.883179,21.189362 394.193268,22.041048 394.193512,22.892544 
	C394.197845,37.939259 394.286255,52.985954 394.194305,68.668724 
	C394.237274,69.101143 394.280243,69.533562 394.214386,70.777641 
	C397.471619,71.157616 400.728851,71.537598 404.842926,72.031685 
	C408.241333,71.607002 411.639709,71.182320 415.232513,71.041298 
	C415.216339,70.553177 415.200165,70.065048 415.376923,69.090248 
	C415.342712,68.746704 415.308472,68.403168 415.485413,67.435532 
	C410.980865,67.073685 406.476288,66.711830 401.271698,65.895111 
	C400.763672,60.438274 400.255615,54.981438 399.680511,48.804497 
	C404.266388,48.804497 407.730042,49.005096 411.142761,48.676491 
	C412.107483,48.583603 413.641418,46.919495 413.611389,46.019474 
	C413.579437,45.062130 412.101532,43.516472 411.078033,43.355991 
	C408.645050,42.974506 406.060638,43.549496 403.631470,43.156590 
	C402.350922,42.949463 400.271179,41.534817 400.260590,40.645115 
	C400.202148,35.721527 400.669250,30.791698 401.872284,25.630440 
	C405.478851,25.597942 409.102356,25.748070 412.681183,25.416378 
	C413.692535,25.322641 414.573303,23.819845 415.735962,22.305515 
	C415.673523,21.857954 415.611053,21.410395 415.620178,20.606436 
M183.598328,72.061813 
	C184.542465,71.674667 185.486603,71.287514 186.626984,70.089798 
	C186.601074,63.012581 186.575165,55.935360 186.767273,48.005997 
	C187.034851,46.685066 187.302429,45.364136 187.570007,44.043205 
	C188.024750,43.980076 188.479492,43.916943 188.934235,43.853809 
	C189.925797,45.664909 191.127457,47.394188 191.870468,49.302078 
	C194.343216,55.651543 196.780823,62.021107 198.972733,68.471039 
	C200.241150,72.203537 202.380463,72.838318 205.721741,71.421425 
	C205.721741,54.315952 205.721741,37.402508 205.721741,20.087502 
	C203.700302,20.183657 201.998184,20.264624 199.703857,20.373760 
	C199.703857,30.276196 199.703857,39.621426 199.703857,48.966656 
	C199.273071,49.101562 198.842270,49.236465 198.411484,49.371372 
	C197.626205,48.120937 196.629898,46.954845 196.090836,45.606007 
	C193.196564,38.363983 190.244186,31.136677 187.667801,23.779644 
	C186.349731,20.015892 184.230682,19.373985 180.231613,20.860168 
	C180.231613,37.168461 180.231613,53.592846 180.186188,70.705841 
	C181.120377,71.110359 182.054550,71.514877 183.598328,72.061813 
M195.951630,489.113739 
	C195.241013,492.510498 196.341095,494.108673 200.067062,493.705475 
	C202.699066,493.420654 205.392761,493.746796 208.038406,493.539093 
	C213.841110,493.083618 218.109009,489.686157 218.553238,484.081573 
	C219.036484,477.984406 220.750977,471.345612 214.891052,466.618896 
	C219.787933,459.187103 220.582123,450.588379 216.945526,446.121368 
	C213.292786,441.634521 202.993973,440.010834 195.990540,442.885986 
	C195.990540,450.309082 195.994949,457.782135 195.989304,465.255188 
	C195.983521,472.902405 195.967896,480.549591 195.951630,489.113739 
M261.526642,453.540100 
	C261.526642,466.778290 261.526642,480.016510 261.526642,493.896179 
	C268.807434,492.861633 277.015686,496.147125 281.422974,489.083771 
	C286.137787,481.527466 285.767181,473.072571 279.750366,465.799377 
	C284.545441,460.576721 285.853973,451.632568 282.718811,446.827545 
	C279.446106,441.811737 269.738922,439.861938 261.536530,442.687897 
	C261.536530,445.928131 261.536530,449.242950 261.526642,453.540100 
M424.190369,27.620266 
	C424.190369,42.328655 424.190369,57.037045 424.190369,72.047470 
	C427.962769,72.047470 430.943970,72.126205 433.919739,72.032875 
	C443.288361,71.739029 447.803955,67.002876 447.786072,57.601395 
	C447.773163,50.789806 447.757874,43.978146 447.775330,37.166599 
	C447.811798,22.925508 444.910950,20.037291 430.555237,20.075808 
	C424.163025,20.092960 424.163025,20.092960 424.190369,27.620266 
M317.881958,36.022705 
	C319.406403,21.621508 311.790039,17.913534 295.045532,20.940308 
	C295.045532,37.818893 295.045532,54.714291 295.045532,71.989334 
	C299.535858,71.989334 303.845184,72.287239 308.093689,71.906258 
	C312.414764,71.518761 315.880341,68.869278 316.727173,64.720131 
	C317.630890,60.292450 318.825439,54.755516 316.988525,51.205883 
	C314.098724,45.621700 315.077148,41.502205 317.881958,36.022705 
M359.786285,59.938206 
	C360.515289,67.888786 364.916229,72.387360 372.263336,72.692024 
	C378.126099,72.935143 383.424896,68.740891 384.430389,63.061157 
	C386.612762,50.734123 384.420013,46.704384 372.955444,41.973049 
	C366.669220,39.378788 365.126251,37.012032 366.953033,30.527840 
	C367.518280,28.521542 370.346680,25.786390 372.089661,25.821598 
	C374.306335,25.866375 376.645447,28.198421 378.572906,29.941227 
	C379.303864,30.602139 379.036835,32.366772 379.269867,33.931973 
	C381.271912,33.791046 382.982513,33.670631 384.627167,33.554863 
	C384.909637,25.910961 382.249725,21.824480 376.281464,20.119286 
	C371.056030,18.626335 364.741760,20.885801 362.273102,25.131958 
	C357.670166,33.049118 361.145081,43.411308 369.554626,46.845421 
	C378.502228,50.499271 380.166321,52.986046 378.077606,61.770016 
	C377.614716,63.716686 374.917969,65.982391 372.851685,66.494392 
	C369.897156,67.226479 366.887329,65.953690 365.993011,62.313259 
	C365.728790,61.237667 365.655243,60.115234 365.470062,58.848087 
	C363.909180,58.745392 362.605286,58.595947 361.303192,58.610409 
	C360.879608,58.615116 360.460724,59.047981 359.786285,59.938206 
M91.036636,60.232796 
	C91.284904,47.174259 90.842400,46.504475 78.951904,41.941204 
	C73.333160,39.784870 71.086685,34.576221 74.062943,29.116972 
	C75.041328,27.322361 77.886917,25.417709 79.739243,25.547853 
	C81.556671,25.675547 84.433884,28.155546 84.674934,29.902731 
	C85.311333,34.515312 87.676697,34.184261 90.791809,33.518162 
	C91.750313,25.609465 88.486549,20.864857 81.688049,19.949614 
	C74.327141,18.958656 69.404739,22.038780 67.627281,28.747925 
	C65.276909,37.619587 68.029793,43.724670 75.644096,46.526890 
	C85.195076,50.041847 86.459251,51.765324 85.098145,60.999500 
	C84.829819,62.819916 83.311859,65.492249 81.874321,65.866394 
	C79.600494,66.458206 76.551781,66.060898 74.513725,64.891884 
	C73.085533,64.072678 72.794693,61.270603 71.900955,59.126225 
	C70.203911,59.126225 68.336052,59.126225 66.476715,59.126225 
	C66.416489,67.085617 71.100517,72.281601 78.343208,72.692398 
	C85.761681,73.113167 90.183060,69.083763 91.036636,60.232796 
M332.948303,38.267902 
	C330.424744,49.358688 327.901215,60.449474 325.304443,71.862091 
	C327.734833,71.862091 329.336578,71.862091 331.101593,71.862091 
	C331.686371,69.089745 332.096863,66.462036 332.840790,63.932392 
	C333.165649,62.827686 333.964264,61.376644 334.904694,61.017406 
	C341.038177,58.674492 346.230255,61.277195 346.872986,67.527420 
	C347.385376,72.510216 349.672150,72.660660 353.518707,71.528946 
	C349.966400,55.478966 346.513000,39.621098 342.859344,23.809523 
	C342.536041,22.410284 340.906281,21.312939 339.883301,20.075386 
	C338.692047,21.346050 336.892090,22.426373 336.424011,23.923182 
	C335.040527,28.347292 334.183533,32.936028 332.948303,38.267902 
M255.115005,34.501675 
	C255.114304,33.503624 255.242218,32.485657 255.091232,31.510881 
	C254.331100,26.603334 256.512177,24.838799 261.263214,25.280209 
	C264.037811,25.537992 266.855927,25.327166 269.997253,25.327166 
	C270.102997,23.450285 270.187958,21.942533 270.274933,20.399490 
	C262.991638,20.399490 256.261261,20.399490 249.358139,20.399490 
	C249.358139,37.742767 249.358139,54.738380 249.358139,71.823883 
	C256.356598,71.823883 262.951172,71.823883 269.967499,71.823883 
	C269.873474,69.856804 269.792542,68.164383 269.681396,65.839310 
	C264.897766,65.839310 258.961853,67.526169 256.768402,65.382935 
	C254.394257,63.063087 255.511002,57.170025 255.108505,52.835087 
	C255.093231,52.670475 255.041336,52.431362 255.126022,52.347103 
	C256.319061,51.160114 257.406555,49.198860 258.767029,48.982765 
	C261.928223,48.480633 265.223572,48.822823 268.232483,48.822823 
	C269.514587,44.225563 268.146210,42.700489 264.253876,43.206333 
	C262.617096,43.419052 260.916687,43.117393 259.271271,43.293388 
	C255.903091,43.653645 254.727249,42.133434 255.097427,38.942528 
	C255.230713,37.793732 255.116669,36.616245 255.115005,34.501675 
M139.946121,46.499996 
	C139.946121,37.883797 139.946121,29.267593 139.946121,20.419991 
	C137.836136,20.419991 136.136658,20.419991 134.341690,20.419991 
	C134.341690,37.784275 134.341690,54.817604 134.341690,72.173904 
	C136.323410,72.008400 137.912521,71.875687 139.946182,71.705841 
	C139.946182,63.414360 139.946182,55.457176 139.946121,46.499996 
z"/>
<path fill="#F9D39F" opacity="1.000000" stroke="none" 
	d="
M208.930527,315.001892 
	C208.921661,312.962830 208.912796,310.923706 209.153931,308.324768 
	C209.328033,307.172577 209.252136,306.580292 209.176239,305.987976 
	C209.172668,303.660278 209.169098,301.332581 209.554932,298.426331 
	C210.295502,296.145050 210.943237,294.443817 210.951599,292.739441 
	C211.028336,277.101837 211.272598,261.456390 210.861526,245.829208 
	C210.685944,239.153885 211.465698,233.382553 217.519684,229.086029 
	C229.966614,229.337234 241.948608,229.603485 253.951599,229.907684 
	C253.972610,229.945618 254.010513,230.023621 254.007141,230.489410 
	C254.004089,236.053650 253.828674,241.162231 254.122589,246.243683 
	C254.200607,247.592392 255.720795,248.857666 256.358948,250.480331 
	C253.028000,254.366211 253.551971,258.043182 255.400482,261.989014 
	C254.707520,270.599884 254.348984,278.993744 254.270813,287.390198 
	C254.264633,288.053955 256.205566,288.735840 257.047516,289.694702 
	C252.865402,294.814911 252.858536,297.471710 256.433228,302.865173 
	C255.699448,304.368713 255.353088,305.685852 254.774231,307.058929 
	C254.541718,307.114868 254.089157,307.269592 253.684570,307.349121 
	C251.325073,307.613220 249.364777,307.999817 247.416153,307.947906 
	C238.201157,307.702484 228.991516,307.223511 219.775772,307.048126 
	C211.338867,306.887573 211.336502,307.011749 210.555069,315.053589 
	C209.797241,315.027588 209.363892,315.014740 208.930527,315.001892 
M244.894424,257.548096 
	C244.151184,256.714569 243.423248,255.173523 242.662354,255.157074 
	C235.103699,254.993744 227.539383,255.054642 219.977158,255.114685 
	C217.306107,255.135895 216.929352,256.533234 218.186783,259.508270 
	C218.615570,259.952393 219.038742,260.777679 219.473953,260.784027 
	C227.221634,260.897705 234.972153,260.982147 242.717377,260.831879 
	C243.438339,260.817871 244.127823,259.180939 244.894424,257.548096 
M243.841171,273.310791 
	C243.366135,272.911713 242.895737,272.171173 242.415375,272.164642 
	C235.003510,272.063904 227.589279,271.997406 220.179092,272.125305 
	C219.436020,272.138123 218.715622,273.463806 217.711502,274.710052 
	C217.835098,275.950134 217.958694,277.190247 218.447281,279.225800 
	C226.897614,279.425385 235.347946,279.624969 243.798279,279.824554 
	C243.696686,279.429657 243.595093,279.034790 243.932693,278.134644 
	C243.960892,276.797424 243.989105,275.460175 243.841171,273.310791 
M225.597992,298.351196 
	C230.921387,298.362976 236.249680,298.498230 241.564255,298.287598 
	C242.695129,298.242767 243.776077,296.938629 244.880035,296.214661 
	C243.758636,295.519714 242.651260,294.251465 241.513550,294.223633 
	C234.531403,294.052917 227.541473,294.109558 220.556458,294.227234 
	C219.265076,294.248993 217.984222,294.894623 216.698517,295.252289 
	C216.691635,295.985382 216.684769,296.718475 216.677902,297.451569 
	C219.327698,297.752472 221.977493,298.053375 225.597992,298.351196 
z"/>
<path fill="#EADBAE" opacity="1.000000" stroke="none" 
	d="
M281.058319,181.516571 
	C281.996338,188.051636 282.590607,194.666779 284.082947,201.072708 
	C284.527313,202.980179 287.317261,204.576935 289.330231,205.842377 
	C298.001312,211.293549 301.104736,219.202148 299.676849,229.577057 
	C297.181213,230.057846 295.064850,230.043457 292.485474,230.021790 
	C279.351837,230.017563 266.681183,230.020599 254.010513,230.023621 
	C254.010513,230.023621 253.972610,229.945618 253.975571,229.454514 
	C253.966583,213.145111 253.954636,197.326813 254.400055,181.387955 
	C263.591034,181.350449 272.324677,181.433517 281.058319,181.516571 
z"/>
<path fill="#FCF3CB" opacity="1.000000" stroke="none" 
	d="
M253.942688,181.508514 
	C253.954636,197.326813 253.966583,213.145111 253.954559,229.416565 
	C241.948608,229.603485 229.966614,229.337234 217.271179,228.792084 
	C214.052551,228.010727 211.547363,227.508255 209.042191,227.005783 
	C210.285019,219.562775 212.489670,212.571320 219.620743,208.631561 
	C226.540268,204.808655 227.795425,198.086227 228.906158,191.325195 
	C229.356949,188.581192 228.975021,185.700363 229.309570,182.172394 
	C237.749069,181.325104 245.851013,181.187225 253.925262,181.163574 
	C253.897568,181.277802 253.942688,181.508514 253.942688,181.508514 
z"/>
<path fill="#ED7D2D" opacity="1.000000" stroke="none" 
	d="
M232.996857,153.018448 
	C235.130066,148.633224 237.379745,144.299713 239.357407,139.845444 
	C240.784882,136.630356 242.526199,133.332703 242.919083,129.932266 
	C243.506516,124.847885 242.980194,119.640366 243.021591,114.485985 
	C243.074371,107.914490 248.523972,102.190407 254.444107,102.384239 
	C260.345032,102.577431 265.825256,109.781357 265.283783,116.166359 
	C264.878357,120.947731 264.364410,125.864090 265.060730,130.547592 
	C265.586670,134.084976 267.370087,137.818283 269.637238,140.620087 
	C272.688660,144.390991 274.686737,148.294296 274.759399,153.493591 
	C267.585205,153.955704 260.802399,153.976929 253.713135,153.714508 
	C246.603409,153.293396 239.800140,153.155930 232.996857,153.018448 
z"/>
<path fill="#FCF3CB" opacity="1.000000" stroke="none" 
	d="
M257.076324,398.893494 
	C247.645676,398.594910 238.115036,399.027161 228.817520,397.755371 
	C221.972107,396.819000 216.116333,393.209839 211.996689,386.637085 
	C208.565689,381.163025 207.887787,375.700287 207.973434,369.696442 
	C208.149811,357.333466 208.226822,344.969055 208.947571,332.304352 
	C209.983002,332.028687 210.415573,332.053925 210.877182,332.540100 
	C210.931229,343.781036 211.115265,354.563782 210.932114,365.340302 
	C210.779297,374.330811 214.967606,378.842163 224.148529,378.884308 
	C234.097763,378.929993 244.047119,378.955109 254.000504,379.453491 
	C253.713821,386.455841 253.890259,392.918274 257.076324,398.893494 
z"/>
<path fill="#2F2025" opacity="1.000000" stroke="none" 
	d="
M195.954102,488.655273 
	C195.967896,480.549591 195.983521,472.902405 195.989304,465.255188 
	C195.994949,457.782135 195.990540,450.309082 195.990540,442.885986 
	C202.993973,440.010834 213.292786,441.634521 216.945526,446.121368 
	C220.582123,450.588379 219.787933,459.187103 214.891052,466.618896 
	C220.750977,471.345612 219.036484,477.984406 218.553238,484.081573 
	C218.109009,489.686157 213.841110,493.083618 208.038406,493.539093 
	C205.392761,493.746796 202.699066,493.420654 200.067062,493.705475 
	C196.341095,494.108673 195.241013,492.510498 195.954102,488.655273 
M202.716019,471.689697 
	C202.734802,475.506592 202.919174,479.331757 202.728439,483.138153 
	C202.512741,487.442627 205.104553,487.792511 208.197418,487.222443 
	C211.695984,486.577606 213.129715,483.942688 213.129944,480.677429 
	C213.130249,476.518127 214.601501,471.466278 209.471695,469.351807 
	C207.694962,468.619415 204.960754,470.209778 202.716019,471.689697 
M213.447906,455.515991 
	C212.674377,449.462952 210.919510,447.870087 205.992828,447.819183 
	C202.800461,447.786163 201.992508,449.542908 202.785324,451.827972 
	C204.078613,455.555511 199.318878,461.317078 205.819138,463.024628 
	C210.436264,464.237549 212.446457,461.958069 213.447906,455.515991 
z"/>
<path fill="#EF8622" opacity="1.000000" stroke="none" 
	d="
M254.019592,153.998138 
	C260.802399,153.976929 267.585205,153.955704 274.861664,153.886230 
	C286.797302,153.742004 286.792786,153.742004 286.794220,165.502655 
	C286.794586,168.662979 286.600372,171.846176 286.910217,174.977844 
	C287.302032,178.937881 285.684937,180.910751 281.445679,181.388916 
	C272.324677,181.433517 263.591034,181.350449 254.400055,181.387955 
	C253.942688,181.508514 253.897568,181.277802 253.942886,180.690704 
	C253.998672,171.401794 254.009125,162.699966 254.019592,153.998138 
z"/>
<path fill="#EADBAE" opacity="1.000000" stroke="none" 
	d="
M257.536774,398.928101 
	C253.890259,392.918274 253.713821,386.455841 253.990143,379.292847 
	C253.975677,378.667938 253.996857,378.346558 254.441437,378.520477 
	C264.020294,378.754303 273.168396,378.525146 282.284668,378.961151 
	C290.278320,379.343445 295.583221,376.013763 299.198547,369.102356 
	C300.073853,369.493042 300.651642,369.770020 301.229431,370.046997 
	C305.612183,383.912231 290.274048,400.840515 277.330688,399.170319 
	C270.982971,398.351257 264.447632,398.985931 257.536774,398.928101 
z"/>
<path fill="#F9A12F" opacity="1.000000" stroke="none" 
	d="
M253.713135,153.714508 
	C254.009125,162.699966 253.998672,171.401794 253.970581,180.576477 
	C245.851013,181.187225 237.749069,181.325104 229.317566,181.706116 
	C222.991867,181.422913 221.231384,178.015228 221.881836,172.339798 
	C222.328903,168.438934 221.927856,164.442993 221.940399,160.489670 
	C221.959137,154.575516 222.575043,153.990417 228.410629,153.863342 
	C229.693314,153.835449 230.969757,153.519608 232.622955,153.177399 
	C239.800140,153.155930 246.603409,153.293396 253.713135,153.714508 
z"/>
<path fill="#D14B49" opacity="1.000000" stroke="none" 
	d="
M180.231613,70.017227 
	C180.231613,53.592846 180.231613,37.168461 180.231613,20.860168 
	C184.230682,19.373985 186.349731,20.015892 187.667801,23.779644 
	C190.244186,31.136677 193.196564,38.363983 196.090836,45.606007 
	C196.629898,46.954845 197.626205,48.120937 198.411484,49.371372 
	C198.842270,49.236465 199.273071,49.101562 199.703857,48.966656 
	C199.703857,39.621426 199.703857,30.276196 199.703857,20.373760 
	C201.998184,20.264624 203.700302,20.183657 205.721741,20.087502 
	C205.721741,37.402508 205.721741,54.315952 205.721741,71.421425 
	C202.380463,72.838318 200.241150,72.203537 198.972733,68.471039 
	C196.780823,62.021107 194.343216,55.651543 191.870468,49.302078 
	C191.127457,47.394188 189.925797,45.664909 188.934235,43.853809 
	C188.479492,43.916943 188.024750,43.980076 187.570007,44.043205 
	C187.302429,45.364136 187.034851,46.685066 186.471008,48.126842 
	C186.037094,46.526997 185.899460,44.806309 185.761826,43.085617 
	C185.008987,51.611031 184.971848,60.091633 185.070877,68.570641 
	C185.080002,69.352402 185.956833,70.124031 186.430740,70.900360 
	C185.486603,71.287514 184.542465,71.674667 183.250732,71.667702 
	C182.012634,70.854797 181.122131,70.436012 180.231613,70.017227 
z"/>
<path fill="#2A1B1F" opacity="1.000000" stroke="none" 
	d="
M261.531586,453.048950 
	C261.536530,449.242950 261.536530,445.928131 261.536530,442.687897 
	C269.738922,439.861938 279.446106,441.811737 282.718811,446.827545 
	C285.853973,451.632568 284.545441,460.576721 279.750366,465.799377 
	C285.767181,473.072571 286.137787,481.527466 281.422974,489.083771 
	C277.015686,496.147125 268.807434,492.861633 261.526642,493.896179 
	C261.526642,480.016510 261.526642,466.778290 261.531586,453.048950 
M277.813690,472.302094 
	C277.211761,471.509216 276.721252,470.174255 275.987396,470.023407 
	C273.633392,469.539551 271.161346,469.236237 268.803345,469.492706 
	C268.322784,469.544952 267.934814,472.327942 267.862610,473.868866 
	C267.706879,477.191986 267.449768,480.575378 267.930908,483.831146 
	C268.122375,485.126831 270.083191,487.024231 271.368866,487.135040 
	C275.409119,487.483185 278.064911,485.416290 278.239441,481.090851 
	C278.346344,478.441498 278.165894,475.780487 277.813690,472.302094 
M268.502747,447.998108 
	C268.231079,452.390381 267.906921,456.780762 267.744751,461.177063 
	C267.720642,461.830719 268.293793,462.783875 268.872314,463.136993 
	C272.436676,465.312683 278.269745,462.211243 278.829559,457.923859 
	C279.777832,450.661194 277.094788,447.752716 268.502747,447.998108 
z"/>
<path fill="#D04B49" opacity="1.000000" stroke="none" 
	d="
M424.189148,27.139874 
	C424.163025,20.092960 424.163025,20.092960 430.555237,20.075808 
	C444.910950,20.037291 447.811798,22.925508 447.775330,37.166599 
	C447.757874,43.978146 447.773163,50.789806 447.786072,57.601395 
	C447.803955,67.002876 443.288361,71.739029 433.919739,72.032875 
	C430.943970,72.126205 427.962769,72.047470 424.190369,72.047470 
	C424.190369,57.037045 424.190369,42.328655 424.189148,27.139874 
M430.879913,34.593460 
	C430.877411,43.243198 430.822937,51.893456 430.909943,60.542294 
	C430.930908,62.625729 429.732819,65.500191 433.497375,65.911049 
	C436.992035,66.292442 440.635773,65.512672 440.791199,61.753113 
	C441.223328,51.302578 440.872742,40.819324 440.794800,30.349268 
	C440.791412,29.889587 440.554779,29.201036 440.210846,29.012039 
	C438.042206,27.820297 435.887085,26.402676 433.544952,25.883850 
	C433.026154,25.768929 431.633911,28.901487 430.922089,30.651886 
	C430.574097,31.507719 430.865021,32.623375 430.879913,34.593460 
z"/>
<path fill="#D04B49" opacity="1.000000" stroke="none" 
	d="
M317.853210,36.448463 
	C315.077148,41.502205 314.098724,45.621700 316.988525,51.205883 
	C318.825439,54.755516 317.630890,60.292450 316.727173,64.720131 
	C315.880341,68.869278 312.414764,71.518761 308.093689,71.906258 
	C303.845184,72.287239 299.535858,71.989334 295.045532,71.989334 
	C295.045532,54.714291 295.045532,37.818893 295.045532,20.940308 
	C311.790039,17.913534 319.406403,21.621508 317.853210,36.448463 
M307.130127,46.818375 
	C302.318481,45.956558 300.470551,47.961674 300.924286,52.784954 
	C301.232819,56.065125 300.705322,59.434849 301.136688,62.686935 
	C301.298126,63.904110 302.991455,65.652733 304.203217,65.854095 
	C307.450897,66.393814 310.438446,65.708900 311.687958,61.874771 
	C313.590332,56.037334 312.023865,49.444447 307.130127,46.818375 
M301.154510,28.853430 
	C301.157837,31.670982 300.795746,34.558147 301.313751,37.277657 
	C301.585785,38.705608 303.191589,40.587650 304.555298,40.965816 
	C308.536530,42.069859 311.287170,40.351143 312.226044,36.140884 
	C313.315582,31.254955 311.454346,26.822994 307.409210,26.209530 
	C305.477631,25.916601 303.288544,27.321850 301.154510,28.853430 
z"/>
<path fill="#D14B49" opacity="1.000000" stroke="none" 
	d="
M359.912994,59.611610 
	C360.460724,59.047981 360.879608,58.615116 361.303192,58.610409 
	C362.605286,58.595947 363.909180,58.745392 365.470062,58.848087 
	C365.655243,60.115234 365.728790,61.237667 365.993011,62.313259 
	C366.887329,65.953690 369.897156,67.226479 372.851685,66.494392 
	C374.917969,65.982391 377.614716,63.716686 378.077606,61.770016 
	C380.166321,52.986046 378.502228,50.499271 369.554626,46.845421 
	C361.145081,43.411308 357.670166,33.049118 362.273102,25.131958 
	C364.741760,20.885801 371.056030,18.626335 376.281464,20.119286 
	C382.249725,21.824480 384.909637,25.910961 384.627167,33.554863 
	C382.982513,33.670631 381.271912,33.791046 379.269867,33.931973 
	C379.036835,32.366772 379.303864,30.602139 378.572906,29.941227 
	C376.645447,28.198421 374.306335,25.866375 372.089661,25.821598 
	C370.346680,25.786390 367.518280,28.521542 366.953033,30.527840 
	C365.126251,37.012032 366.669220,39.378788 372.955444,41.973049 
	C384.420013,46.704384 386.612762,50.734123 384.430389,63.061157 
	C383.424896,68.740891 378.126099,72.935143 372.263336,72.692024 
	C364.916229,72.387360 360.515289,67.888786 359.912994,59.611610 
z"/>
<path fill="#D34B48" opacity="1.000000" stroke="none" 
	d="
M91.031212,60.683495 
	C90.183060,69.083763 85.761681,73.113167 78.343208,72.692398 
	C71.100517,72.281601 66.416489,67.085617 66.476715,59.126225 
	C68.336052,59.126225 70.203911,59.126225 71.900955,59.126225 
	C72.794693,61.270603 73.085533,64.072678 74.513725,64.891884 
	C76.551781,66.060898 79.600494,66.458206 81.874321,65.866394 
	C83.311859,65.492249 84.829819,62.819916 85.098145,60.999500 
	C86.459251,51.765324 85.195076,50.041847 75.644096,46.526890 
	C68.029793,43.724670 65.276909,37.619587 67.627281,28.747925 
	C69.404739,22.038780 74.327141,18.958656 81.688049,19.949614 
	C88.486549,20.864857 91.750313,25.609465 90.791809,33.518162 
	C87.676697,34.184261 85.311333,34.515312 84.674934,29.902731 
	C84.433884,28.155546 81.556671,25.675547 79.739243,25.547853 
	C77.886917,25.417709 75.041328,27.322361 74.062943,29.116972 
	C71.086685,34.576221 73.333160,39.784870 78.951904,41.941204 
	C90.842400,46.504475 91.284904,47.174259 91.031212,60.683495 
z"/>
<path fill="#D14B49" opacity="1.000000" stroke="none" 
	d="
M333.034424,37.864132 
	C334.183533,32.936028 335.040527,28.347292 336.424011,23.923182 
	C336.892090,22.426373 338.692047,21.346050 339.883301,20.075384 
	C340.906281,21.312939 342.536041,22.410284 342.859344,23.809523 
	C346.513000,39.621098 349.966400,55.478966 353.518707,71.528946 
	C349.672150,72.660660 347.385376,72.510216 346.872986,67.527420 
	C346.230255,61.277195 341.038177,58.674492 334.904694,61.017406 
	C333.964264,61.376644 333.165649,62.827686 332.840790,63.932392 
	C332.096863,66.462036 331.686371,69.089745 331.101593,71.862091 
	C329.336578,71.862091 327.734833,71.862091 325.304443,71.862091 
	C327.901215,60.449474 330.424744,49.358688 333.034424,37.864132 
M335.645569,53.997604 
	C338.544006,55.104267 342.991241,56.705460 343.340576,52.815403 
	C343.824554,47.425602 341.784485,41.809147 340.825134,36.289738 
	C340.061615,36.287598 339.298096,36.285454 338.534576,36.283314 
	C337.427032,41.955990 336.319519,47.628670 335.645569,53.997604 
z"/>
<path fill="#D14642" opacity="1.000000" stroke="none" 
	d="
M255.115250,34.976761 
	C255.116669,36.616245 255.230713,37.793732 255.097427,38.942528 
	C254.727249,42.133434 255.903091,43.653645 259.271271,43.293388 
	C260.916687,43.117393 262.617096,43.419052 264.253876,43.206333 
	C268.146210,42.700489 269.514587,44.225563 268.232483,48.822823 
	C265.223572,48.822823 261.928223,48.480633 258.767029,48.982765 
	C257.406555,49.198860 256.319061,51.160114 255.126022,52.347103 
	C255.041336,52.431362 255.093231,52.670475 255.108505,52.835087 
	C255.511002,57.170025 254.394257,63.063087 256.768402,65.382935 
	C258.961853,67.526169 264.897766,65.839310 269.681396,65.839310 
	C269.792542,68.164383 269.873474,69.856804 269.967499,71.823883 
	C262.951172,71.823883 256.356598,71.823883 249.358139,71.823883 
	C249.358139,54.738380 249.358139,37.742767 249.358139,20.399490 
	C256.261261,20.399490 262.991638,20.399490 270.274933,20.399490 
	C270.187958,21.942533 270.102997,23.450285 269.997253,25.327166 
	C266.855927,25.327166 264.037811,25.537992 261.263214,25.280209 
	C256.512177,24.838799 254.331100,26.603334 255.091232,31.510881 
	C255.242218,32.485657 255.114304,33.503624 255.115250,34.976761 
z"/>
<path fill="#D34B48" opacity="1.000000" stroke="none" 
	d="
M101.924850,25.807390 
	C101.924850,25.807390 101.973114,25.373001 102.403580,25.135002 
	C103.211792,24.245583 103.589546,23.594162 103.967293,22.942743 
	C103.967293,22.942743 103.998825,22.997593 104.367859,22.949036 
	C108.366669,22.196875 111.996429,21.493271 115.626198,20.789669 
	C122.161484,22.364580 123.251762,27.308338 123.234535,33.641651 
	C121.351578,33.752003 119.488808,33.861168 117.236534,33.993164 
	C117.046097,32.467060 117.311676,30.893761 116.648788,30.049252 
	C115.243828,28.259344 113.374298,25.657539 111.658630,25.629486 
	C110.045418,25.603113 107.038933,28.397181 106.964424,30.054569 
	C106.487488,40.664059 106.441612,51.309635 106.815849,61.923538 
	C106.875374,63.611694 109.670181,66.354393 111.381226,66.501129 
	C113.006943,66.640549 116.186775,64.177383 116.381989,62.577744 
	C116.975510,57.714329 119.636009,58.527538 122.664566,59.089905 
	C123.048286,65.188179 120.690773,69.793274 116.389549,71.581566 
	C111.316795,73.690636 106.404572,72.320877 102.114975,66.844719 
	C101.974922,52.639927 101.949883,39.223660 101.924850,25.807390 
z"/>
<path fill="#D34B48" opacity="1.000000" stroke="none" 
	d="
M216.852859,28.945255 
	C217.951401,22.252602 222.124527,19.240801 229.289627,19.969503 
	C236.244843,20.676859 239.167603,24.699532 238.733154,33.587467 
	C237.078445,33.676735 235.360977,33.769386 233.667618,33.860737 
	C233.358063,33.052013 233.061096,32.613506 233.037354,32.160683 
	C232.848022,28.548210 231.954788,25.100519 227.593018,25.294901 
	C222.799133,25.508543 222.017868,29.404181 222.079178,33.274727 
	C222.223740,42.400623 222.612366,51.522846 222.734665,60.648800 
	C222.777512,63.846992 223.374680,66.488777 227.115677,66.551567 
	C230.538071,66.609009 232.781662,64.897850 233.003265,61.184387 
	C233.041916,60.536682 233.219803,59.897282 233.383484,58.970352 
	C235.173233,58.970352 236.882401,58.970352 238.572891,58.970352 
	C239.092316,70.371674 231.476791,75.398384 221.044342,70.197479 
	C220.434372,69.466087 220.126389,69.281937 219.818420,69.097786 
	C219.818420,69.097786 219.911636,69.099922 219.886688,68.797287 
	C219.205109,68.009216 218.548462,67.523781 217.891815,67.038345 
	C217.593445,66.559433 217.295059,66.080521 217.279068,65.008034 
	C217.325256,52.591396 217.089066,40.768326 216.852859,28.945255 
z"/>
<path fill="#2F2025" opacity="1.000000" stroke="none" 
	d="
M305.013977,493.901855 
	C302.667328,494.391113 300.917236,494.032410 301.312866,491.046234 
	C303.561340,474.075409 298.012329,458.626129 292.051361,443.249786 
	C291.946075,442.978210 292.089508,442.610229 292.152710,441.864349 
	C295.974976,440.842926 298.523651,441.439423 299.495941,446.075348 
	C300.530975,451.010132 302.128021,455.827026 303.479675,460.695374 
	C303.948334,460.731018 304.416992,460.766632 304.885651,460.802246 
	C305.496277,459.806244 306.326874,458.881775 306.678040,457.801453 
	C307.957367,453.865448 309.290405,449.925537 310.197815,445.895813 
	C311.171173,441.573456 313.459747,440.564789 317.864197,442.251129 
	C314.579254,451.391907 311.351990,460.372131 307.552368,469.788147 
	C306.741882,477.911987 306.503723,485.600067 306.265594,493.288147 
	C306.265594,493.288147 306.057312,493.072632 305.916626,493.166016 
	C305.521973,493.473541 305.267975,493.687683 305.013977,493.901855 
z"/>
<path fill="#D14642" opacity="1.000000" stroke="none" 
	d="
M412.965790,20.223932 
	C413.431030,20.167925 413.896271,20.111916 414.741272,20.325569 
	C415.222534,20.765511 415.365051,20.888046 415.548615,20.962835 
	C415.611053,21.410395 415.673523,21.857954 415.271301,22.730839 
	C412.746735,23.359764 410.652985,23.397308 408.635345,23.808510 
	C406.043701,24.336706 403.513153,25.164997 400.956299,25.864010 
	C400.669250,30.791698 400.202148,35.721527 400.260590,40.645115 
	C400.271179,41.534817 402.350922,42.949463 403.631470,43.156590 
	C406.060638,43.549496 408.645050,42.974506 411.078033,43.355991 
	C412.101532,43.516472 413.579437,45.062130 413.611389,46.019474 
	C413.641418,46.919495 412.107483,48.583603 411.142761,48.676491 
	C407.730042,49.005096 404.266388,48.804497 399.680511,48.804497 
	C400.255615,54.981438 400.763672,60.438274 401.760315,66.480621 
	C406.590698,67.397293 410.932465,67.728462 415.274231,68.059631 
	C415.308472,68.403168 415.342712,68.746704 415.219910,69.626701 
	C415.054626,70.361313 415.046387,70.559479 415.038116,70.757637 
	C411.639709,71.182320 408.241333,71.607002 404.124695,71.720184 
	C400.378723,70.927788 397.350952,70.446884 394.323181,69.965981 
	C394.280243,69.533562 394.237274,69.101143 394.633301,68.208038 
	C395.360229,67.179733 395.897400,66.613068 395.899597,66.044334 
	C395.950989,52.726250 395.941193,39.407944 395.952423,26.089687 
	C395.954041,24.163477 396.005432,22.237307 396.033783,20.311119 
	C396.780121,20.253292 397.526459,20.195463 398.740601,20.331017 
	C399.208435,20.524395 399.655640,20.579214 399.655640,20.579214 
	C399.655640,20.579214 399.991211,20.248537 399.991211,20.248537 
	C400.448395,20.206032 400.905579,20.163525 402.021851,20.421043 
	C406.109222,20.555359 409.537506,20.389647 412.965790,20.223932 
z"/>
<path fill="#221418" opacity="1.000000" stroke="none" 
	d="
M234.132843,483.348328 
	C234.078293,483.722534 234.023743,484.096710 233.436752,484.727753 
	C231.802719,483.724945 230.701141,482.465302 229.599548,481.205658 
	C229.629822,480.640320 229.660095,480.074982 230.051117,479.143097 
	C230.389526,478.217865 230.367188,477.659149 230.344849,477.100464 
	C230.489182,476.262299 230.633514,475.424133 231.215118,474.422028 
	C232.234589,474.255463 232.816772,474.252838 233.398956,474.250214 
	C232.699860,473.783875 232.000778,473.317505 231.301697,472.851135 
	C233.411438,463.627930 235.445404,454.385986 237.715042,445.202301 
	C238.044296,443.869995 239.502487,442.816681 240.438293,441.634277 
	C241.546860,442.841095 243.302917,443.885712 243.652710,445.282532 
	C245.227539,451.570953 246.403442,457.959229 247.430481,464.795929 
	C246.395859,464.348755 245.653915,463.417145 244.911987,462.485565 
	C244.778580,466.118011 245.195801,469.588806 246.186523,472.887329 
	C246.977219,475.519806 246.221512,476.202911 243.885406,475.499817 
	C243.065323,469.500854 242.140991,463.916321 241.216660,458.331818 
	C240.698883,458.354004 240.181107,458.376190 239.663315,458.398376 
	C238.606766,464.188293 237.550232,469.978241 236.141373,475.977722 
	C235.236984,478.574280 234.684906,480.961304 234.132843,483.348328 
z"/>
<path fill="#D2413E" opacity="1.000000" stroke="none" 
	d="
M169.008347,66.418015 
	C169.446838,66.333130 169.885345,66.248245 170.657288,66.594818 
	C170.659851,68.652184 170.328934,70.278084 169.998016,71.903992 
	C169.827835,71.938789 169.657639,71.973595 168.923035,71.685394 
	C164.886185,71.230957 161.387527,71.313919 157.950455,70.893410 
	C155.622375,70.608582 152.930664,70.426201 152.959763,66.725159 
	C153.068176,52.931854 153.033432,39.137058 152.979431,25.343103 
	C152.965775,21.854277 154.688080,21.579393 156.276031,22.090630 
	C156.553589,24.167305 156.731079,25.495354 156.908569,26.823402 
	C156.897568,30.760931 157.130951,34.718723 156.806488,38.630249 
	C156.485840,42.495968 158.140259,43.612942 161.648209,43.282627 
	C163.766083,43.083210 165.909393,43.154022 168.614166,43.358330 
	C169.410995,43.824104 169.674301,43.956940 169.976974,44.011761 
	C170.021042,44.175632 170.065109,44.339504 169.829224,44.826912 
	C169.720490,45.424450 169.891708,45.698456 170.062927,45.972458 
	C170.108521,46.423676 170.154129,46.874893 169.890350,47.722572 
	C169.291107,48.233116 169.079117,48.430725 168.944977,48.711864 
	C166.596024,48.728699 164.247086,48.745533 161.242279,48.528038 
	C159.712906,48.442947 158.839386,48.592182 157.965851,48.741421 
	C157.650162,48.968990 157.334473,49.196556 156.734818,49.789146 
	C156.404968,50.267307 156.290085,50.415356 156.326294,50.486935 
	C156.429688,50.691242 156.594528,50.864456 156.735199,51.049904 
	C156.769196,54.522659 156.670944,58.004116 156.898575,61.464134 
	C156.997543,62.968338 157.766403,64.428467 158.732330,66.463310 
	C162.491898,66.818016 165.750122,66.618019 169.008347,66.418015 
z"/>
<path fill="#D14B49" opacity="1.000000" stroke="none" 
	d="
M139.946152,46.999992 
	C139.946182,55.457176 139.946182,63.414360 139.946182,71.705841 
	C137.912521,71.875687 136.323410,72.008400 134.341690,72.173904 
	C134.341690,54.817604 134.341690,37.784275 134.341690,20.419991 
	C136.136658,20.419991 137.836136,20.419991 139.946121,20.419991 
	C139.946121,29.267593 139.946121,37.883797 139.946152,46.999992 
z"/>
<path fill="#F0E4B9" opacity="1.000000" stroke="none" 
	d="
M301.469879,369.713196 
	C300.651642,369.770020 300.073853,369.493042 299.194183,368.634521 
	C298.845917,347.785156 298.799500,327.517365 298.838684,306.800171 
	C298.961914,304.564545 298.999512,302.778320 299.296692,300.757812 
	C299.383240,299.018158 299.210205,297.512848 299.026520,295.538574 
	C299.026672,288.053192 299.037476,281.036713 299.402527,274.016357 
	C300.461914,273.997498 301.167084,273.982513 301.872253,273.967560 
	C301.818298,305.771484 301.764313,337.575439 301.469879,369.713196 
z"/>
<path fill="#2A1B1F" opacity="1.000000" stroke="none" 
	d="
M234.495499,483.021362 
	C234.684906,480.961304 235.236984,478.574280 236.540588,476.029114 
	C239.455139,475.885406 241.618149,475.899841 243.781174,475.914307 
	C246.221512,476.202911 246.977219,475.519806 246.186523,472.887329 
	C245.195801,469.588806 244.778580,466.118011 244.911987,462.485565 
	C245.653915,463.417145 246.395859,464.348755 247.403717,465.190430 
	C249.810867,474.374268 251.952118,483.647980 254.191116,493.345032 
	C251.969238,493.345032 250.259689,493.345032 248.307571,493.345032 
	C247.537079,489.550873 246.793427,485.888824 245.990540,481.935181 
	C241.997726,482.207520 238.427948,482.450958 234.495499,483.021362 
z"/>
<path fill="#D14642" opacity="1.000000" stroke="none" 
	d="
M157.244278,26.634132 
	C156.731079,25.495354 156.553589,24.167305 156.276031,22.090630 
	C154.688080,21.579393 152.965775,21.854277 152.979431,25.343103 
	C153.033432,39.137058 153.068176,52.931854 152.959763,66.725159 
	C152.930664,70.426201 155.622375,70.608582 157.950455,70.893410 
	C161.387527,71.313919 164.886185,71.230957 168.668335,71.630508 
	C163.181931,71.898621 157.385834,71.898621 151.290329,71.898621 
	C151.290329,54.659184 151.290329,37.636250 151.290329,20.339399 
	C158.122955,20.339399 164.707565,20.339399 171.712067,20.339399 
	C171.803772,21.810713 171.889694,23.189148 171.988480,24.774172 
	C166.958893,25.357361 162.269440,25.901112 157.244278,26.634132 
z"/>
<path fill="#FCF1C7" opacity="1.000000" stroke="none" 
	d="
M209.027802,227.473694 
	C211.547363,227.508255 214.052551,228.010727 216.806244,228.807129 
	C211.465698,233.382553 210.685944,239.153885 210.861526,245.829208 
	C211.272598,261.456390 211.028336,277.101837 210.951599,292.739441 
	C210.943237,294.443817 210.295502,296.145050 209.576538,297.992188 
	C209.143631,274.738281 209.078522,251.339935 209.027802,227.473694 
z"/>
<path fill="#EEDAAB" opacity="1.000000" stroke="none" 
	d="
M292.948456,230.029053 
	C295.064850,230.043457 297.181213,230.057846 299.657166,230.034927 
	C300.650635,241.675980 301.284576,253.354324 301.545319,265.509399 
	C300.484192,266.003296 299.796265,266.020508 299.072784,265.565918 
	C299.031006,259.125824 298.648529,253.127762 299.117584,247.197052 
	C299.656281,240.386047 298.677338,234.438354 292.948456,230.029053 
z"/>
<path fill="#CA5453" opacity="1.000000" stroke="none" 
	d="
M395.642822,20.324444 
	C396.005432,22.237307 395.954041,24.163477 395.952423,26.089687 
	C395.941193,39.407944 395.950989,52.726250 395.899597,66.044334 
	C395.897400,66.613068 395.360229,67.179733 394.714417,67.890007 
	C394.286255,52.985954 394.197845,37.939259 394.193512,22.892544 
	C394.193268,22.041048 394.883179,21.189362 395.642822,20.324444 
z"/>
<path fill="#CA5453" opacity="1.000000" stroke="none" 
	d="
M101.643677,26.080620 
	C101.949883,39.223660 101.974922,52.639927 102.003021,66.524475 
	C101.402527,65.524765 100.292824,64.062393 100.276466,62.587891 
	C100.158432,51.952934 100.222008,41.315075 100.341751,30.679415 
	C100.358025,29.233913 101.006660,27.795528 101.643677,26.080620 
z"/>
<path fill="#CA5453" opacity="1.000000" stroke="none" 
	d="
M216.606430,29.281857 
	C217.089066,40.768326 217.325256,52.591396 217.270782,64.715210 
	C216.691818,62.285427 216.168060,59.555744 216.158310,56.824226 
	C216.125885,47.755989 216.278397,38.687099 216.606430,29.281857 
z"/>
<path fill="#D2413E" opacity="1.000000" stroke="none" 
	d="
M186.528870,70.495087 
	C185.956833,70.124031 185.080002,69.352402 185.070877,68.570641 
	C184.971848,60.091633 185.008987,51.611031 185.761826,43.085617 
	C185.899460,44.806309 186.037094,46.526997 186.362000,48.552917 
	C186.575165,55.935360 186.601074,63.012581 186.528870,70.495087 
z"/>
<path fill="#FCF3CB" opacity="1.000000" stroke="none" 
	d="
M208.650314,315.303650 
	C209.363892,315.014740 209.797241,315.027588 210.582306,315.512573 
	C210.910294,320.631836 210.886581,325.278961 210.536209,329.941162 
	C209.772949,329.977417 209.336334,329.998657 208.899719,330.019897 
	C208.723190,325.215088 208.546646,320.410248 208.650314,315.303650 
z"/>
<path fill="#221418" opacity="1.000000" stroke="none" 
	d="
M306.702087,493.173889 
	C306.503723,485.600067 306.741882,477.911987 307.351013,470.084351 
	C307.527527,477.649750 307.333069,485.354706 306.702087,493.173889 
z"/>
<path fill="#221418" opacity="1.000000" stroke="none" 
	d="
M233.413101,487.112183 
	C233.149231,490.855103 233.520416,495.208099 226.809555,493.158691 
	C227.217041,491.247253 227.638824,489.268738 228.510818,487.126343 
	C229.485626,487.643188 230.010239,488.323944 230.261551,488.650055 
	C231.399796,488.094635 232.406448,487.603394 233.413101,487.112183 
z"/>
<path fill="#CA5453" opacity="1.000000" stroke="none" 
	d="
M401.414307,25.747225 
	C403.513153,25.164997 406.043701,24.336706 408.635345,23.808510 
	C410.652985,23.397308 412.746735,23.359764 415.160339,23.059731 
	C414.573303,23.819845 413.692535,25.322641 412.681183,25.416378 
	C409.102356,25.748070 405.478851,25.597942 401.414307,25.747225 
z"/>
<path fill="#CA5453" opacity="1.000000" stroke="none" 
	d="
M415.379822,67.747581 
	C410.932465,67.728462 406.590698,67.397293 402.110352,66.708054 
	C406.476288,66.711830 410.980865,67.073685 415.379822,67.747581 
z"/>
<path fill="#CA5453" opacity="1.000000" stroke="none" 
	d="
M115.359520,20.523201 
	C111.996429,21.493271 108.366669,22.196875 104.339981,22.934093 
	C106.922386,19.031824 110.931862,19.332701 115.359520,20.523201 
z"/>
<path fill="#D14642" opacity="1.000000" stroke="none" 
	d="
M168.564102,66.313004 
	C165.750122,66.618019 162.491898,66.818016 159.113678,66.660088 
	C162.035736,66.270775 165.077789,66.239388 168.564102,66.313004 
z"/>
<path fill="#2A1B1F" opacity="1.000000" stroke="none" 
	d="
M233.589203,486.888794 
	C232.406448,487.603394 231.399796,488.094635 230.261551,488.650055 
	C230.010239,488.323944 229.485626,487.643188 228.660248,486.783752 
	C228.633942,484.972168 228.908386,483.339264 229.391205,481.456024 
	C230.701141,482.465302 231.802719,483.724945 233.313644,484.986755 
	C233.737091,485.547760 233.751190,486.106567 233.589203,486.888794 
z"/>
<path fill="#EEDAAB" opacity="1.000000" stroke="none" 
	d="
M301.904663,273.557922 
	C301.167084,273.982513 300.461914,273.997498 299.382996,273.595398 
	C299.035675,271.774597 299.062073,270.370850 299.435364,268.974304 
	C300.472260,269.000061 301.162292,269.018646 301.852295,269.037262 
	C301.880554,270.407623 301.908813,271.777954 301.904663,273.557922 
z"/>
<path fill="#CA5453" opacity="1.000000" stroke="none" 
	d="
M394.268799,70.371811 
	C397.350952,70.446884 400.378723,70.927788 403.696289,71.663132 
	C400.728851,71.537598 397.471619,71.157616 394.268799,70.371811 
z"/>
<path fill="#CA5453" opacity="1.000000" stroke="none" 
	d="
M412.515991,20.149364 
	C409.537506,20.389647 406.109222,20.555359 402.361206,20.488127 
	C405.383087,20.195055 408.724640,20.134926 412.515991,20.149364 
z"/>
<path fill="#F0E4B9" opacity="1.000000" stroke="none" 
	d="
M301.900787,268.654419 
	C301.162292,269.018646 300.472260,269.000061 299.415527,268.608490 
	C299.068665,267.502899 299.088501,266.770294 299.108368,266.037689 
	C299.796265,266.020508 300.484192,266.003296 301.512756,265.974487 
	C301.885406,266.732452 301.917358,267.501984 301.900787,268.654419 
z"/>
<path fill="#D14642" opacity="1.000000" stroke="none" 
	d="
M170.389511,71.941826 
	C170.328934,70.278084 170.659851,68.652184 170.987152,66.665695 
	C170.916031,68.196632 170.848511,70.088150 170.389511,71.941826 
z"/>
<path fill="#D2413E" opacity="1.000000" stroke="none" 
	d="
M180.208893,70.361534 
	C181.122131,70.436012 182.012634,70.854797 182.945953,71.596497 
	C182.054550,71.514877 181.120377,71.110359 180.208893,70.361534 
z"/>
<path fill="#2A1B1F" opacity="1.000000" stroke="none" 
	d="
M231.170395,473.018616 
	C232.000778,473.317505 232.699860,473.783875 233.398956,474.250214 
	C232.816772,474.252838 232.234589,474.255463 231.367310,474.136627 
	C230.942734,473.745300 230.928375,473.468933 231.170395,473.018616 
z"/>
<path fill="#F9D39F" opacity="1.000000" stroke="none" 
	d="
M208.904175,330.346680 
	C209.336334,329.998657 209.772949,329.977417 210.601486,330.298676 
	C210.945007,331.120514 210.896591,331.599823 210.848175,332.079163 
	C210.415573,332.053925 209.983002,332.028687 209.223816,331.992035 
	C208.901016,331.544922 208.904816,331.109192 208.904175,330.346680 
z"/>
<path fill="#CA5453" opacity="1.000000" stroke="none" 
	d="
M103.690826,23.032986 
	C103.589546,23.594162 103.211792,24.245583 102.533417,24.959227 
	C102.626648,24.388712 103.020500,23.755972 103.690826,23.032986 
z"/>
<path fill="#2A1B1F" opacity="1.000000" stroke="none" 
	d="
M230.185959,477.244873 
	C230.367188,477.659149 230.389526,478.217865 230.191833,478.893005 
	C229.990234,478.469360 230.008652,477.929321 230.185959,477.244873 
z"/>
<path fill="#FCF3CB" opacity="1.000000" stroke="none" 
	d="
M208.919678,306.103729 
	C209.252136,306.580292 209.328033,307.172577 209.157440,307.887878 
	C208.828354,307.413757 208.745743,306.816620 208.919678,306.103729 
z"/>
<path fill="#CA5453" opacity="1.000000" stroke="none" 
	d="
M217.962799,67.337708 
	C218.548462,67.523781 219.205109,68.009216 219.864166,68.838112 
	C219.255676,68.666740 218.644730,68.151909 217.962799,67.337708 
z"/>
<path fill="#D57471" opacity="1.000000" stroke="none" 
	d="
M158.345306,48.827972 
	C158.839386,48.592182 159.712906,48.442947 160.804291,48.480217 
	C160.256348,48.749325 159.490570,48.831928 158.345306,48.827972 
z"/>
<path fill="#CA5453" opacity="1.000000" stroke="none" 
	d="
M415.135315,70.899467 
	C415.046387,70.559479 415.054626,70.361313 415.123413,69.870041 
	C415.200165,70.065048 415.216339,70.553177 415.135315,70.899467 
z"/>
<path fill="#221418" opacity="1.000000" stroke="none" 
	d="
M305.282837,493.946960 
	C305.267975,493.687683 305.521973,493.473541 306.034912,493.258026 
	C306.046478,493.501801 305.799103,493.746948 305.282837,493.946960 
z"/>
<path fill="#CA5453" opacity="1.000000" stroke="none" 
	d="
M219.915955,69.356224 
	C220.126389,69.281937 220.434372,69.466087 220.844086,69.906387 
	C220.635040,69.979904 220.324280,69.797279 219.915955,69.356224 
z"/>
<path fill="#D57471" opacity="1.000000" stroke="none" 
	d="
M156.824341,50.777363 
	C156.594528,50.864456 156.429688,50.691242 156.326294,50.486935 
	C156.290085,50.415356 156.404968,50.267307 156.604370,50.053513 
	C156.809753,50.136841 156.861603,50.320831 156.824341,50.777363 
z"/>
<path fill="#D57471" opacity="1.000000" stroke="none" 
	d="
M169.208099,48.765591 
	C169.079117,48.430725 169.291107,48.233116 169.793671,48.056007 
	C169.828003,48.268425 169.649628,48.543869 169.208099,48.765591 
z"/>
<path fill="#D57471" opacity="1.000000" stroke="none" 
	d="
M170.108185,45.721725 
	C169.891708,45.698456 169.720490,45.424450 169.761536,45.072289 
	C170.033691,45.153084 170.093567,45.312035 170.108185,45.721725 
z"/>
<path fill="#D57471" opacity="1.000000" stroke="none" 
	d="
M169.947235,43.743614 
	C169.674301,43.956940 169.410995,43.824104 169.070480,43.422798 
	C169.275101,43.313385 169.596298,43.394424 169.947235,43.743614 
z"/>
<path fill="#CA5453" opacity="1.000000" stroke="none" 
	d="
M415.584412,20.784636 
	C415.365051,20.888046 415.222534,20.765511 415.067200,20.462811 
	C415.296051,20.245924 415.498291,20.337938 415.584412,20.784636 
z"/>
<path fill="#CA5453" opacity="1.000000" stroke="none" 
	d="
M399.746063,20.183659 
	C399.991211,20.248537 399.655640,20.579214 399.655640,20.579214 
	C399.655640,20.579214 399.208435,20.524395 399.111603,20.393890 
	C399.176819,20.215185 399.338867,20.166985 399.746063,20.183659 
z"/>
<path fill="#F7AC56" opacity="1.000000" stroke="none" 
	d="
M210.877197,332.540070 
	C210.896591,331.599823 210.945007,331.120514 210.928146,330.283630 
	C210.886581,325.278961 210.910294,320.631836 210.906769,315.525696 
	C211.336502,307.011749 211.338867,306.887573 219.775772,307.048126 
	C228.991516,307.223511 238.201157,307.702484 247.416153,307.947906 
	C249.364777,307.999817 251.325073,307.613220 253.659012,307.789001 
	C254.030334,313.709442 253.841461,319.279114 254.134491,324.823273 
	C254.213882,326.325592 255.750137,327.750885 256.407043,329.516937 
	C252.735291,332.902618 252.721313,336.391205 254.914200,340.552856 
	C254.574554,342.889893 254.066772,344.820404 254.051163,346.754883 
	C253.966125,357.284912 254.002350,367.815887 253.996857,378.346558 
	C253.996857,378.346558 253.975677,378.667938 253.986053,378.828583 
	C244.047119,378.955109 234.097763,378.929993 224.148529,378.884308 
	C214.967606,378.842163 210.779297,374.330811 210.932114,365.340302 
	C211.115265,354.563782 210.931229,343.781036 210.877197,332.540070 
M243.351532,333.746643 
	C235.699371,333.666595 228.045853,333.495728 220.396545,333.608215 
	C219.297150,333.624359 218.217834,335.006256 217.129227,335.756104 
	C218.078400,336.459167 219.013535,337.748871 219.978943,337.771942 
	C227.302444,337.947021 234.635590,337.978241 241.953674,337.716614 
	C242.682159,337.690613 243.330017,335.409760 243.351532,333.746643 
M220.022247,357.944641 
	C227.163513,357.957123 234.306931,358.059692 241.443832,357.889648 
	C242.577087,357.862671 243.681107,356.608765 244.798645,355.922119 
	C243.996826,355.251648 243.205338,354.013733 242.391602,353.998962 
	C234.762405,353.860352 227.128693,353.886078 219.498642,354.010162 
	C218.725128,354.022766 217.967194,354.992767 217.202026,355.518433 
	C217.853928,356.304688 218.505829,357.090942 220.022247,357.944641 
M220.907211,314.152344 
	C219.658554,314.877533 218.409897,315.602722 217.161240,316.327881 
	C218.487595,316.965332 219.797211,318.110016 221.143158,318.154510 
	C227.767242,318.373260 234.403976,318.412140 241.028778,318.235046 
	C242.347626,318.199799 243.633850,316.944061 244.935135,316.251129 
	C243.693741,315.543701 242.469788,314.263489 241.208038,314.225067 
	C234.749893,314.028442 228.282028,314.151886 220.907211,314.152344 
z"/>
<path fill="#E68F44" opacity="1.000000" stroke="none" 
	d="
M254.441437,378.520477 
	C254.002350,367.815887 253.966125,357.284912 254.051163,346.754883 
	C254.066772,344.820404 254.574554,342.889893 255.258133,340.636475 
	C256.621674,340.964600 257.512756,341.770050 258.555786,342.233856 
	C261.764801,343.660828 265.276062,343.596985 266.977081,340.481964 
	C268.299957,338.059418 269.169830,334.093933 268.042786,331.993988 
	C266.918793,329.899719 263.133698,329.047485 260.357910,328.123749 
	C259.344116,327.786377 257.877686,328.809235 256.617737,329.211548 
	C255.750137,327.750885 254.213882,326.325592 254.134491,324.823273 
	C253.841461,319.279114 254.030334,313.709442 254.063599,307.709473 
	C254.089157,307.269592 254.541718,307.114868 255.174240,307.085815 
	C256.874878,307.023193 257.943024,306.989624 259.446655,306.981506 
	C261.917297,306.992218 263.952423,306.977478 266.436890,307.005066 
	C268.997162,307.035919 271.108093,307.024414 273.517029,307.034790 
	C274.424316,307.054718 275.033600,307.052734 275.717621,307.441010 
	C275.655426,310.200714 275.518524,312.570129 274.975281,315.007446 
	C272.436157,317.389740 271.595062,319.533325 275.462830,321.358582 
	C275.505157,322.051727 275.446167,322.453766 274.959473,322.957642 
	C274.081451,323.494354 273.242645,323.924713 273.237488,324.364838 
	C273.106232,335.552734 273.039276,346.741791 273.106537,357.929779 
	C273.108704,358.291779 274.639526,358.644623 275.595215,359.366150 
	C275.522217,361.192596 275.311707,362.654633 274.852783,363.825806 
	C272.624695,362.925751 270.520691,361.999969 270.106201,365.688782 
	C271.333099,370.987610 275.278564,368.281647 277.983978,368.700592 
	C279.353790,368.912720 280.922272,367.842072 282.400940,367.351379 
	C281.707703,366.385468 280.853577,365.493164 280.367920,364.432220 
	C279.912506,363.437378 279.639313,362.263824 279.640778,361.169373 
	C279.664856,343.208069 279.745239,325.246887 280.087097,307.225311 
	C280.547119,307.143158 280.732971,307.121368 281.391785,307.104767 
	C287.494202,307.156525 293.123627,307.203033 298.753052,307.249573 
	C298.799500,327.517365 298.845917,347.785156 298.896667,368.520813 
	C295.583221,376.013763 290.278320,379.343445 282.284668,378.961151 
	C273.168396,378.525146 264.020294,378.754303 254.441437,378.520477 
z"/>
<path fill="#F1BE8C" opacity="1.000000" stroke="none" 
	d="
M273.219055,307.012909 
	C271.108093,307.024414 268.997162,307.035919 266.476746,306.657043 
	C267.052887,304.984619 268.598145,303.825867 268.913086,302.396088 
	C269.683258,298.899628 270.019867,295.283051 270.156891,291.700562 
	C270.175568,291.212341 268.053802,290.642242 266.590393,290.008453 
	C264.035034,289.292023 261.812347,288.677185 259.209351,288.078552 
	C258.241821,288.485657 257.654602,288.876556 257.133118,289.275757 
	C257.198822,289.283997 257.241608,289.409332 257.241608,289.409332 
	C256.205566,288.735840 254.264633,288.053955 254.270813,287.390198 
	C254.348984,278.993744 254.707520,270.599884 255.695770,262.133026 
	C259.891571,264.660309 263.428223,264.942383 266.637207,261.759857 
	C268.891022,259.524628 270.997559,256.987427 268.104736,253.349426 
	C266.681244,252.020523 265.317200,251.008911 263.730042,249.781738 
	C261.197510,249.764542 258.888184,249.962906 256.578827,250.161255 
	C255.720795,248.857666 254.200607,247.592392 254.122589,246.243683 
	C253.828674,241.162231 254.004089,236.053650 254.007141,230.489410 
	C266.681183,230.020599 279.351837,230.017563 292.485474,230.021790 
	C298.677338,234.438354 299.656281,240.386047 299.117584,247.197052 
	C298.648529,253.127762 299.031006,259.125824 299.072784,265.565918 
	C299.088501,266.770294 299.068665,267.502899 299.068665,268.601318 
	C299.062073,270.370850 299.035675,271.774597 299.028809,273.599274 
	C299.037476,281.036713 299.026672,288.053192 298.754211,295.765686 
	C298.674072,297.971832 298.855591,299.481995 299.037109,300.992126 
	C298.999512,302.778320 298.961914,304.564545 298.838715,306.800171 
	C293.123627,307.203033 287.494202,307.156525 281.271423,306.856689 
	C280.363525,306.436188 280.048950,306.269012 279.622192,305.757812 
	C279.578644,303.971497 279.647278,302.529236 280.019775,300.879639 
	C280.527740,300.059265 280.908417,299.446716 280.910126,298.833099 
	C280.950043,284.542450 280.972900,270.251556 280.904449,255.961166 
	C280.899597,254.944443 280.168427,253.931198 279.669922,252.538208 
	C279.675720,249.107010 279.786499,246.053909 280.082153,242.932266 
	C280.340607,242.756531 280.500519,242.594635 280.473175,242.551483 
	C280.343536,242.347061 280.162750,242.175049 279.984131,241.661072 
	C280.055817,240.899246 280.143585,240.467865 280.509888,239.978119 
	C280.969879,239.307114 281.151398,238.694473 281.332916,238.081818 
	C280.572021,237.988617 279.811157,237.895416 278.601562,237.760880 
	C276.520142,237.758957 274.850372,237.603394 273.267487,237.904572 
	C272.164734,238.114426 271.181183,238.950806 270.144379,239.507309 
	C271.092468,240.362579 272.040588,241.217834 273.067810,242.479614 
	C273.456848,249.886368 273.680847,256.892242 274.136749,263.882935 
	C274.251190,265.637543 275.110046,267.343597 275.709900,269.528107 
	C275.735687,275.966248 275.678345,281.948242 275.311157,288.045837 
	C275.210144,289.799561 275.419006,291.437683 275.705627,293.488770 
	C275.726410,295.577759 275.669434,297.253723 275.291504,299.053253 
	C274.386719,301.788849 273.802887,304.400879 273.219055,307.012909 
z"/>
<path fill="#3B3340" opacity="1.000000" stroke="none" 
	d="
M218.082291,278.430328 
	C217.958694,277.190247 217.835098,275.950134 218.318024,274.436768 
	C227.288803,274.149994 235.653046,274.136475 244.017303,274.122955 
	C243.989105,275.460175 243.960892,276.797424 243.282074,278.363892 
	C234.448395,278.538879 226.265335,278.484619 218.082291,278.430328 
z"/>
<path fill="#3B3340" opacity="1.000000" stroke="none" 
	d="
M259.589691,288.062347 
	C261.812347,288.677185 264.035034,289.292023 266.755524,290.307556 
	C270.025238,293.914001 270.237427,297.296967 267.665375,300.651978 
	C264.761505,304.439850 260.964722,304.402740 256.901794,302.752594 
	C256.885132,302.718567 256.820618,302.678802 256.820618,302.678802 
	C252.858536,297.471710 252.865402,294.814911 257.047516,289.694702 
	C257.241608,289.409332 257.198822,289.283997 257.504700,289.276917 
	C258.403625,288.867371 258.996643,288.464844 259.589691,288.062347 
M257.009552,298.146973 
	C258.141449,302.112091 261.064728,303.377106 264.031158,301.029297 
	C265.758942,299.661865 266.625610,296.269867 266.468109,293.881897 
	C266.397369,292.809784 262.865479,291.178558 260.910217,291.187134 
	C257.188934,291.203461 256.824341,294.304932 257.009552,298.146973 
z"/>
<path fill="#2A1B1F" opacity="1.000000" stroke="none" 
	d="
M218.103485,258.666992 
	C216.929352,256.533234 217.306107,255.135895 219.977158,255.114685 
	C227.539383,255.054642 235.103699,254.993744 242.662354,255.157074 
	C243.423248,255.173523 244.151184,256.714569 244.421112,258.062683 
	C235.333023,258.607178 226.718246,258.637085 218.103485,258.666992 
z"/>
<path fill="#3B3340" opacity="1.000000" stroke="none" 
	d="
M225.112640,298.352753 
	C221.977493,298.053375 219.327698,297.752472 216.677902,297.451569 
	C216.684769,296.718475 216.691635,295.985382 216.698517,295.252289 
	C217.984222,294.894623 219.265076,294.248993 220.556458,294.227234 
	C227.541473,294.109558 234.531403,294.052917 241.513550,294.223633 
	C242.651260,294.251465 243.758636,295.519714 244.880035,296.214661 
	C243.776077,296.938629 242.695129,298.242767 241.564255,298.287598 
	C236.249680,298.498230 230.921387,298.362976 225.112640,298.352753 
M235.284332,297.011200 
	C237.156570,297.011200 239.028809,297.011200 240.901047,297.011200 
	C240.896194,296.763275 240.891342,296.515381 240.886490,296.267456 
	C234.297577,296.267456 227.708664,296.267456 221.119751,296.267456 
	C221.116394,296.515289 221.113037,296.763153 221.109665,297.010986 
	C225.521469,297.010986 229.933258,297.010986 235.284332,297.011200 
z"/>
<path fill="#3B3340" opacity="1.000000" stroke="none" 
	d="
M268.164185,253.666718 
	C270.997559,256.987427 268.891022,259.524628 266.637207,261.759857 
	C263.428223,264.942383 259.891571,264.660309 256.101715,261.916626 
	C253.551971,258.043182 253.028000,254.366211 256.358948,250.480347 
	C258.888184,249.962906 261.197510,249.764542 263.328613,249.805481 
	C258.098511,249.266846 256.537659,252.665771 256.509705,256.511139 
	C256.496552,258.320404 258.285492,261.248077 259.865570,261.748016 
	C263.949646,263.040131 266.197296,260.027222 267.637726,256.582947 
	C268.009888,255.693115 267.999084,254.643143 268.164185,253.666718 
z"/>
<path fill="#F0E4B9" opacity="1.000000" stroke="none" 
	d="
M218.145142,259.087646 
	C226.718246,258.637085 235.333023,258.607178 244.389847,258.437408 
	C244.127823,259.180939 243.438339,260.817871 242.717377,260.831879 
	C234.972153,260.982147 227.221634,260.897705 219.473953,260.784027 
	C219.038742,260.777679 218.615570,259.952393 218.145142,259.087646 
z"/>
<path fill="#F0E4B9" opacity="1.000000" stroke="none" 
	d="
M243.929230,273.716858 
	C235.653046,274.136475 227.288803,274.149994 218.454636,274.171875 
	C218.715622,273.463806 219.436020,272.138123 220.179092,272.125305 
	C227.589279,271.997406 235.003510,272.063904 242.415375,272.164642 
	C242.895737,272.171173 243.366135,272.911713 243.929230,273.716858 
z"/>
<path fill="#F0E4B9" opacity="1.000000" stroke="none" 
	d="
M218.264786,278.828064 
	C226.265335,278.484619 234.448395,278.538879 243.062469,278.616516 
	C243.595093,279.034790 243.696686,279.429657 243.798279,279.824554 
	C235.347946,279.624969 226.897614,279.425385 218.264786,278.828064 
z"/>
<path fill="#F1BE8C" opacity="1.000000" stroke="none" 
	d="
M256.433228,302.865173 
	C256.820618,302.678802 256.885132,302.718567 256.966003,303.099060 
	C257.701599,304.638367 258.356384,305.797211 259.011139,306.956055 
	C257.943024,306.989624 256.874878,307.023193 255.406754,307.029907 
	C255.353088,305.685852 255.699448,304.368713 256.433228,302.865173 
z"/>
<path fill="#F1F2F3" opacity="1.000000" stroke="none" 
	d="
M202.689957,471.214447 
	C204.960754,470.209778 207.694962,468.619415 209.471695,469.351807 
	C214.601501,471.466278 213.130249,476.518127 213.129944,480.677429 
	C213.129715,483.942688 211.695984,486.577606 208.197418,487.222443 
	C205.104553,487.792511 202.512741,487.442627 202.728439,483.138153 
	C202.919174,479.331757 202.734802,475.506592 202.689957,471.214447 
z"/>
<path fill="#F1F2F3" opacity="1.000000" stroke="none" 
	d="
M213.445755,455.950989 
	C212.446457,461.958069 210.436264,464.237549 205.819138,463.024628 
	C199.318878,461.317078 204.078613,455.555511 202.785324,451.827972 
	C201.992508,449.542908 202.800461,447.786163 205.992828,447.819183 
	C210.919510,447.870087 212.674377,449.462952 213.445755,455.950989 
z"/>
<path fill="#F1F2F3" opacity="1.000000" stroke="none" 
	d="
M277.964081,472.713409 
	C278.165894,475.780487 278.346344,478.441498 278.239441,481.090851 
	C278.064911,485.416290 275.409119,487.483185 271.368866,487.135040 
	C270.083191,487.024231 268.122375,485.126831 267.930908,483.831146 
	C267.449768,480.575378 267.706879,477.191986 267.862610,473.868866 
	C267.934814,472.327942 268.322784,469.544952 268.803345,469.492706 
	C271.161346,469.236237 273.633392,469.539551 275.987396,470.023407 
	C276.721252,470.174255 277.211761,471.509216 277.964081,472.713409 
z"/>
<path fill="#F1F2F3" opacity="1.000000" stroke="none" 
	d="
M268.947113,447.845520 
	C277.094788,447.752716 279.777832,450.661194 278.829559,457.923859 
	C278.269745,462.211243 272.436676,465.312683 268.872314,463.136993 
	C268.293793,462.783875 267.720642,461.830719 267.744751,461.177063 
	C267.906921,456.780762 268.231079,452.390381 268.947113,447.845520 
z"/>
<path fill="#F8F7F7" opacity="1.000000" stroke="none" 
	d="
M430.873352,34.107445 
	C430.865021,32.623375 430.574097,31.507719 430.922089,30.651886 
	C431.633911,28.901487 433.026154,25.768929 433.544952,25.883850 
	C435.887085,26.402676 438.042206,27.820297 440.210846,29.012039 
	C440.554779,29.201036 440.791412,29.889587 440.794800,30.349268 
	C440.872742,40.819324 441.223328,51.302578 440.791199,61.753113 
	C440.635773,65.512672 436.992035,66.292442 433.497375,65.911049 
	C429.732819,65.500191 430.930908,62.625729 430.909943,60.542294 
	C430.822937,51.893456 430.877411,43.243198 430.873352,34.107445 
z"/>
<path fill="#F8F7F7" opacity="1.000000" stroke="none" 
	d="
M307.551758,46.897079 
	C312.023865,49.444447 313.590332,56.037334 311.687958,61.874771 
	C310.438446,65.708900 307.450897,66.393814 304.203217,65.854095 
	C302.991455,65.652733 301.298126,63.904110 301.136688,62.686935 
	C300.705322,59.434849 301.232819,56.065125 300.924286,52.784954 
	C300.470551,47.961674 302.318481,45.956558 307.551758,46.897079 
z"/>
<path fill="#F8F7F7" opacity="1.000000" stroke="none" 
	d="
M301.185303,28.405674 
	C303.288544,27.321850 305.477631,25.916601 307.409210,26.209530 
	C311.454346,26.822994 313.315582,31.254955 312.226044,36.140884 
	C311.287170,40.351143 308.536530,42.069859 304.555298,40.965816 
	C303.191589,40.587650 301.585785,38.705608 301.313751,37.277657 
	C300.795746,34.558147 301.157837,31.670982 301.185303,28.405674 
z"/>
<path fill="#F1F2F3" opacity="1.000000" stroke="none" 
	d="
M335.428772,53.649475 
	C336.319519,47.628670 337.427032,41.955990 338.534576,36.283314 
	C339.298096,36.285454 340.061615,36.287598 340.825134,36.289738 
	C341.784485,41.809147 343.824554,47.425602 343.340576,52.815403 
	C342.991241,56.705460 338.544006,55.104267 335.428772,53.649475 
z"/>
<path fill="#F1F2F3" opacity="1.000000" stroke="none" 
	d="
M243.885406,475.499817 
	C241.618149,475.899841 239.455139,475.885406 236.892899,475.819580 
	C237.550232,469.978241 238.606766,464.188293 239.663315,458.398376 
	C240.181107,458.376190 240.698883,458.354004 241.216660,458.331818 
	C242.140991,463.916321 243.065323,469.500854 243.885406,475.499817 
z"/>
<path fill="#EEDAAB" opacity="1.000000" stroke="none" 
	d="
M299.296692,300.757812 
	C298.855591,299.481995 298.674072,297.971832 298.764893,296.234619 
	C299.210205,297.512848 299.383240,299.018158 299.296692,300.757812 
z"/>
<path fill="#302B3F" opacity="1.000000" stroke="none" 
	d="
M256.407043,329.516937 
	C257.877686,328.809235 259.344116,327.786377 260.357910,328.123749 
	C263.133698,329.047485 266.918793,329.899719 268.042786,331.993988 
	C269.169830,334.093933 268.299957,338.059418 266.977081,340.481964 
	C265.276062,343.596985 261.764801,343.660828 258.555786,342.233856 
	C257.512756,341.770050 256.621674,340.964600 255.317169,340.231812 
	C252.721313,336.391205 252.735291,332.902618 256.407043,329.516937 
z"/>
<path fill="#3B3340" opacity="1.000000" stroke="none" 
	d="
M243.683411,333.961029 
	C243.330017,335.409760 242.682159,337.690613 241.953674,337.716614 
	C234.635590,337.978241 227.302444,337.947021 219.978943,337.771942 
	C219.013535,337.748871 218.078400,336.459167 217.129242,335.756104 
	C218.217834,335.006256 219.297150,333.624359 220.396545,333.608215 
	C228.045853,333.495728 235.699371,333.666595 243.683411,333.961029 
z"/>
<path fill="#3B3340" opacity="1.000000" stroke="none" 
	d="
M219.589996,357.910919 
	C218.505829,357.090942 217.853928,356.304688 217.202026,355.518433 
	C217.967194,354.992767 218.725128,354.022766 219.498642,354.010162 
	C227.128693,353.886078 234.762405,353.860352 242.391602,353.998962 
	C243.205338,354.013733 243.996826,355.251648 244.798645,355.922119 
	C243.681107,356.608765 242.577087,357.862671 241.443832,357.889648 
	C234.306931,358.059692 227.163513,357.957123 219.589996,357.910919 
z"/>
<path fill="#3B3340" opacity="1.000000" stroke="none" 
	d="
M221.362381,314.157898 
	C228.282028,314.151886 234.749893,314.028442 241.208038,314.225067 
	C242.469788,314.263489 243.693741,315.543701 244.935135,316.251129 
	C243.633850,316.944061 242.347626,318.199799 241.028778,318.235046 
	C234.403976,318.412140 227.767242,318.373260 221.143158,318.154510 
	C219.797211,318.110016 218.487595,316.965332 217.161240,316.327881 
	C218.409897,315.602722 219.658554,314.877533 221.362381,314.157898 
z"/>
<path fill="#2C273C" opacity="1.000000" stroke="none" 
	d="
M279.715881,301.086945 
	C279.647278,302.529236 279.578644,303.971497 279.559998,306.059235 
	C279.677612,306.898346 279.745300,307.092010 279.812958,307.285645 
	C279.745239,325.246887 279.664856,343.208069 279.640778,361.169373 
	C279.639313,362.263824 279.912506,363.437378 280.367920,364.432220 
	C280.853577,365.493164 281.707703,366.385468 282.400940,367.351379 
	C280.922272,367.842072 279.353790,368.912720 277.983978,368.700592 
	C275.278564,368.281647 271.333099,370.987610 270.459167,365.572144 
	C272.225494,364.757935 273.663361,364.437317 275.101227,364.116699 
	C275.311707,362.654633 275.522217,361.192596 275.718994,358.910522 
	C275.599274,346.345612 275.493225,334.600708 275.387146,322.855804 
	C275.446167,322.453766 275.505157,322.051727 275.546265,320.925781 
	C275.479462,318.447784 275.430542,316.693695 275.381622,314.939575 
	C275.518524,312.570129 275.655426,310.200714 275.834961,306.998657 
	C275.789185,303.753906 275.700806,301.341797 275.612457,298.929688 
	C275.669434,297.253723 275.726410,295.577759 275.835693,293.072266 
	C275.798981,290.805206 275.709991,289.367737 275.620972,287.930237 
	C275.678345,281.948242 275.735687,275.966248 275.839966,269.069489 
	C275.931274,260.552887 275.991974,252.951050 276.008850,245.349136 
	C276.013214,243.387115 276.390289,240.952576 272.988678,242.073090 
	C272.040588,241.217834 271.092468,240.362579 270.144379,239.507309 
	C271.181183,238.950806 272.164734,238.114426 273.267487,237.904572 
	C274.850372,237.603394 276.520142,237.758957 278.730408,238.049622 
	C279.615784,238.931961 279.923584,239.484207 280.231384,240.036469 
	C280.143585,240.467865 280.055817,240.899246 279.866364,241.904068 
	C279.808899,242.651947 279.853088,242.826385 279.897308,243.000824 
	C279.786499,246.053909 279.675720,249.107010 279.495636,252.983490 
	C279.522858,269.566895 279.619385,285.326935 279.715881,301.086945 
z"/>
<path fill="#EF9B50" opacity="1.000000" stroke="none" 
	d="
M274.959473,322.957642 
	C275.493225,334.600708 275.599274,346.345612 275.581543,358.546143 
	C274.639526,358.644623 273.108704,358.291779 273.106537,357.929779 
	C273.039276,346.741791 273.106232,335.552734 273.237488,324.364838 
	C273.242645,323.924713 274.081451,323.494354 274.959473,322.957642 
z"/>
<path fill="#F9D39F" opacity="1.000000" stroke="none" 
	d="
M259.446655,306.981506 
	C258.356384,305.797211 257.701599,304.638367 256.982666,303.133087 
	C260.964722,304.402740 264.761505,304.439850 267.665375,300.651978 
	C270.237427,297.296967 270.025238,293.914001 267.088226,290.409180 
	C268.053802,290.642242 270.175568,291.212341 270.156891,291.700562 
	C270.019867,295.283051 269.683258,298.899628 268.913086,302.396088 
	C268.598145,303.825867 267.052887,304.984619 266.027466,306.614685 
	C263.952423,306.977478 261.917297,306.992218 259.446655,306.981506 
z"/>
<path fill="#CBA78C" opacity="1.000000" stroke="none" 
	d="
M275.291504,299.053253 
	C275.700806,301.341797 275.789185,303.753906 275.760223,306.608398 
	C275.033600,307.052734 274.424316,307.054718 273.517029,307.034790 
	C273.802887,304.400879 274.386719,301.788849 275.291504,299.053253 
z"/>
<path fill="#EF9B50" opacity="1.000000" stroke="none" 
	d="
M274.975281,315.007446 
	C275.430542,316.693695 275.479462,318.447784 275.444946,320.634705 
	C271.595062,319.533325 272.436157,317.389740 274.975281,315.007446 
z"/>
<path fill="#EF9B50" opacity="1.000000" stroke="none" 
	d="
M274.852783,363.825806 
	C273.663361,364.437317 272.225494,364.757935 270.434662,365.195221 
	C270.520691,361.999969 272.624695,362.925751 274.852783,363.825806 
z"/>
<path fill="#CBA78C" opacity="1.000000" stroke="none" 
	d="
M280.087097,307.225311 
	C279.745300,307.092010 279.677612,306.898346 279.672180,306.403259 
	C280.048950,306.269012 280.363525,306.436188 280.798462,306.851471 
	C280.732971,307.121368 280.547119,307.143158 280.087097,307.225311 
z"/>
<path fill="#262A49" opacity="1.000000" stroke="none" 
	d="
M268.104736,253.349426 
	C267.999084,254.643143 268.009888,255.693115 267.637726,256.582947 
	C266.197296,260.027222 263.949646,263.040131 259.865570,261.748016 
	C258.285492,261.248077 256.496552,258.320404 256.509705,256.511139 
	C256.537659,252.665771 258.098511,249.266846 263.551788,250.021027 
	C265.317200,251.008911 266.681244,252.020523 268.104736,253.349426 
z"/>
<path fill="#CBA78C" opacity="1.000000" stroke="none" 
	d="
M280.019745,300.879639 
	C279.619385,285.326935 279.522858,269.566895 279.600647,253.361603 
	C280.168427,253.931198 280.899597,254.944443 280.904449,255.961166 
	C280.972900,270.251556 280.950043,284.542450 280.910126,298.833099 
	C280.908417,299.446716 280.527740,300.059265 280.019745,300.879639 
z"/>
<path fill="#CBA78C" opacity="1.000000" stroke="none" 
	d="
M273.067810,242.479614 
	C276.390289,240.952576 276.013214,243.387115 276.008850,245.349136 
	C275.991974,252.951050 275.931274,260.552887 275.756836,268.613342 
	C275.110046,267.343597 274.251190,265.637543 274.136749,263.882935 
	C273.680847,256.892242 273.456848,249.886368 273.067810,242.479614 
z"/>
<path fill="#CBA78C" opacity="1.000000" stroke="none" 
	d="
M275.311157,288.045837 
	C275.709991,289.367737 275.798981,290.805206 275.757935,292.659241 
	C275.419006,291.437683 275.210144,289.799561 275.311157,288.045837 
z"/>
<path fill="#CBA78C" opacity="1.000000" stroke="none" 
	d="
M280.509888,239.978119 
	C279.923584,239.484207 279.615784,238.931961 279.179138,238.090958 
	C279.811157,237.895416 280.572021,237.988617 281.332916,238.081818 
	C281.151398,238.694473 280.969879,239.307114 280.509888,239.978119 
z"/>
<path fill="#F9D39F" opacity="1.000000" stroke="none" 
	d="
M259.209351,288.078552 
	C258.996643,288.464844 258.403625,288.867371 257.438995,289.268677 
	C257.654602,288.876556 258.241821,288.485657 259.209351,288.078552 
z"/>
<path fill="#CBA78C" opacity="1.000000" stroke="none" 
	d="
M280.082153,242.932266 
	C279.853088,242.826385 279.808899,242.651947 279.882446,242.234497 
	C280.162750,242.175049 280.343536,242.347061 280.473175,242.551483 
	C280.500519,242.594635 280.340607,242.756531 280.082153,242.932266 
z"/>
<path fill="#262A49" opacity="1.000000" stroke="none" 
	d="
M256.996155,297.733368 
	C256.824341,294.304932 257.188934,291.203461 260.910217,291.187134 
	C262.865479,291.178558 266.397369,292.809784 266.468109,293.881897 
	C266.625610,296.269867 265.758942,299.661865 264.031158,301.029297 
	C261.064728,303.377106 258.141449,302.112091 256.996155,297.733368 
z"/>
<path fill="#262A49" opacity="1.000000" stroke="none" 
	d="
M234.814697,297.011108 
	C229.933258,297.010986 225.521469,297.010986 221.109665,297.010986 
	C221.113037,296.763153 221.116394,296.515289 221.119751,296.267456 
	C227.708664,296.267456 234.297577,296.267456 240.886490,296.267456 
	C240.891342,296.515381 240.896194,296.763275 240.901047,297.011200 
	C239.028809,297.011200 237.156570,297.011200 234.814697,297.011108 
z"/>
</svg>