<svg version="1.1" id="Layer_1" xmlns="http://www.w3.org/2000/svg" xmlns:xlink="http://www.w3.org/1999/xlink" x="0px" y="0px"
	 width="100%" viewBox="0 0 512 512" enable-background="new 0 0 512 512" xml:space="preserve">
<path fill="#FFFEFE" opacity="1.000000" stroke="none" 
	d="
M513.000000,130.000000 
	C513.000000,257.968872 513.000000,385.437744 513.000000,512.953308 
	C342.406128,512.953308 171.812225,512.953308 1.109165,512.953308 
	C1.109165,342.447815 1.109165,171.895569 1.109165,1.171650 
	C171.666519,1.171650 342.333252,1.171650 513.000000,1.171650 
	C513.000000,43.854404 513.000000,86.677200 513.000000,130.000000 
M222.853958,180.147903 
	C222.853958,180.147903 222.868561,180.235092 223.015289,180.835205 
	C224.010849,180.906326 225.006424,180.977432 226.677750,181.084152 
	C227.104706,181.223846 227.531662,181.363556 227.959595,182.369003 
	C227.970123,185.015717 228.263824,187.698227 227.934601,190.301987 
	C227.152161,196.490265 227.065491,202.627396 220.264130,206.579102 
	C213.242004,210.659134 208.512589,217.072800 208.870300,226.803040 
	C208.901123,231.363297 209.005402,235.924454 208.950211,240.483673 
	C208.694000,261.644592 208.393585,282.804962 207.727905,304.721436 
	C207.485504,310.006927 207.137421,315.290192 207.024002,320.578430 
	C206.824265,329.892883 206.704330,339.210175 206.676544,348.526642 
	C206.661163,353.685822 206.900406,358.845764 207.013779,364.938751 
	C207.013504,367.593750 207.095947,370.251770 206.997726,372.903168 
	C206.680710,381.460632 210.054749,388.904877 216.791153,393.354828 
	C222.136963,396.886139 229.041092,398.817383 235.495438,399.711792 
	C242.897705,400.737549 250.567108,399.835602 259.038330,399.851593 
	C265.850677,399.885620 272.675690,399.674591 279.471741,400.024628 
	C285.889923,400.355164 298.409973,391.012299 299.909180,385.025391 
	C301.286194,379.526367 301.327118,373.692780 302.018311,367.069550 
	C301.993774,336.041840 301.969208,305.014160 301.992889,273.052765 
	C301.972443,261.033691 301.952026,249.014587 301.791901,236.535843 
	C301.607483,236.244751 301.344269,236.077759 300.434570,235.505859 
	C300.270660,233.670654 300.106720,231.835434 300.000336,229.080765 
	C300.007141,228.582397 300.002960,228.083618 300.022308,227.585739 
	C300.373535,218.545959 298.875885,210.623825 289.712585,205.808563 
	C286.822113,204.289612 285.032318,200.676071 282.890778,197.184662 
	C282.275330,195.095245 281.659882,193.005844 281.064972,190.135635 
	C281.056213,189.094330 281.047455,188.053024 281.534576,186.510437 
	C282.361938,184.685562 283.189301,182.860672 284.650970,180.606018 
	C285.419220,179.129974 286.783508,177.680054 286.849548,176.173233 
	C287.097382,170.519608 286.767975,164.842361 286.954712,159.183853 
	C287.093719,154.971069 284.983429,153.561066 281.195831,153.491043 
	C279.099457,153.452286 277.007324,153.183289 274.981079,152.207169 
	C273.232452,148.379944 271.521576,144.534897 269.723633,140.730972 
	C268.194458,137.495621 265.719543,134.441757 265.184296,131.066376 
	C264.439972,126.372528 264.829803,121.428139 265.253235,116.636879 
	C265.843292,109.960480 261.011139,102.915878 255.018814,102.378799 
	C248.398224,101.785416 242.884796,107.681297 242.923721,115.290298 
	C242.949295,120.288147 243.387619,125.338768 242.800049,130.265442 
	C242.413437,133.507004 240.685394,136.641891 239.276886,139.694824 
	C237.505157,143.535080 235.446381,147.242905 233.148926,151.607895 
	C233.086899,152.069229 233.024857,152.530548 232.205231,153.269806 
	C231.075027,153.446533 229.947617,153.754349 228.814178,153.778336 
	C222.325104,153.915665 221.834488,154.396515 221.828537,161.062286 
	C221.823502,166.714478 221.832886,172.366669 221.430832,178.367325 
	C221.876114,178.956100 222.321411,179.544876 222.853958,180.147903 
M170.970261,72.022911 
	C170.975159,70.098152 170.980042,68.173393 170.323822,66.073799 
	C169.884338,66.174751 169.444855,66.275711 168.128067,66.116890 
	C165.083786,66.157326 162.039490,66.197762 158.265015,65.838730 
	C158.166840,60.156761 158.068649,54.474792 158.775284,48.954460 
	C159.856079,48.865318 160.936859,48.776173 162.879532,48.789215 
	C164.902267,48.775246 166.924988,48.761276 169.499588,48.869427 
	C169.704681,48.591919 169.909790,48.314411 170.174347,47.218487 
	C170.145493,46.132565 170.116638,45.046646 169.945633,43.332943 
	C168.640915,43.275394 167.336212,43.217846 165.129715,43.099693 
	C162.072174,42.304611 156.871292,45.822678 157.294571,38.355339 
	C157.139267,35.246475 156.983978,32.137611 156.948517,28.310671 
	C157.125900,27.608963 157.303268,26.907253 158.219666,26.003754 
	C162.636780,25.709486 167.053909,25.415218 171.735962,25.103300 
	C171.735962,23.389488 171.735962,21.887444 171.735962,20.311405 
	C164.631790,20.311405 157.916824,20.311405 150.953064,20.311405 
	C150.953064,37.672501 150.953064,54.694660 150.953064,72.570068 
	C157.323700,72.086800 163.437759,71.622993 169.627045,71.851082 
	C169.857376,71.878853 170.087692,71.906616 170.970261,72.022911 
M251.014008,493.338745 
	C251.651382,493.338440 252.288773,493.338135 253.320175,493.566925 
	C253.095139,491.751648 252.870102,489.936371 252.673706,487.390839 
	C252.503189,486.938843 252.332672,486.486847 252.384766,485.354797 
	C252.002335,484.027496 251.619904,482.700195 251.315216,480.885284 
	C251.281906,480.547119 251.158295,480.246033 251.147522,479.473419 
	C250.842422,478.443024 250.537308,477.412659 250.329910,475.772156 
	C250.156937,475.185394 249.983948,474.598602 249.923828,473.315979 
	C249.562958,472.228973 249.202087,471.141968 248.840668,469.300842 
	C248.594360,468.877625 248.348053,468.454376 248.431900,467.444031 
	C247.989410,466.205475 247.546936,464.966919 247.336044,463.055847 
	C247.204468,462.364075 247.072906,461.672272 247.176315,460.549500 
	C246.876419,459.812164 246.576538,459.074829 246.359299,457.555573 
	C245.598877,454.380371 244.838455,451.205170 244.286072,447.537018 
	C244.093369,447.057495 243.900665,446.577972 243.828644,445.444305 
	C243.511032,444.631989 243.193420,443.819672 242.949280,442.541412 
	C242.292145,442.337860 241.635010,442.134277 240.247101,441.626984 
	C235.946045,444.583679 236.972046,449.494843 235.338699,454.129639 
	C234.387375,458.763519 233.436050,463.397430 232.107208,468.623047 
	C231.989639,469.542175 231.872086,470.461304 231.350296,471.674652 
	C231.234268,472.448700 231.118240,473.222717 230.735229,474.410675 
	C230.602081,474.734924 230.610352,475.055542 230.354645,475.787872 
	C230.206100,476.869110 230.057571,477.950378 229.645142,479.532715 
	C229.603882,480.093231 229.562637,480.653717 229.092499,481.662415 
	C228.965851,482.453217 228.839188,483.244019 228.278458,484.681366 
	C228.128723,485.967621 227.978989,487.253845 227.451584,488.929291 
	C227.322983,489.944641 227.194382,490.959991 226.922958,492.746643 
	C232.335632,494.731506 232.961029,494.232605 233.797287,487.026428 
	C234.851532,481.477661 234.851532,481.477661 245.923248,482.760651 
	C246.488174,484.696411 247.078033,486.717590 247.558868,489.680420 
	C247.907028,491.430267 247.303604,494.183350 250.808197,492.619019 
	C250.808197,492.619019 250.905624,492.656708 251.014008,493.338745 
M305.556641,493.680542 
	C306.054688,493.496552 306.552765,493.312531 307.716583,492.803375 
	C307.778748,490.649261 307.850952,488.495422 307.901276,486.341034 
	C308.086487,478.413269 307.147430,470.472382 310.577209,462.773682 
	C313.521515,456.164673 315.505066,449.127625 317.968536,442.123413 
	C313.690399,440.630402 310.990723,441.217194 310.114960,446.006500 
	C309.551422,449.088165 308.543121,452.103394 307.545746,455.085358 
	C306.917114,456.964691 305.940460,458.727631 305.119965,460.542786 
	C304.609924,460.516785 304.099884,460.490784 303.589844,460.464813 
	C302.267273,455.763031 300.637146,451.121094 299.707489,446.342865 
	C298.752991,441.437317 296.130646,440.689606 291.717285,441.970734 
	C291.929047,442.856903 292.007172,443.499298 292.233368,444.084412 
	C297.999756,459.002045 303.474304,473.980469 301.225067,490.442413 
	C300.772949,493.751556 302.377258,494.188660 305.556641,493.680542 
M216.165054,43.638256 
	C216.231949,44.126591 216.298859,44.614925 216.142395,46.001495 
	C216.117340,50.656395 216.065933,55.311333 216.073120,59.966183 
	C216.085342,67.883568 220.900375,72.954071 228.068207,72.644737 
	C235.458054,72.325821 239.296097,67.439262 238.694717,58.883221 
	C235.585083,58.057480 233.203781,57.561546 232.380432,62.235317 
	C232.088577,63.892097 228.783447,65.896622 226.667282,66.143684 
	C223.635727,66.497612 222.810318,63.740570 222.782883,60.945709 
	C222.689987,51.480736 222.514420,42.016586 222.406235,32.551716 
	C222.395004,31.568666 222.266830,30.263065 222.808502,29.660482 
	C224.231506,28.077486 225.988159,25.716919 227.623718,25.707438 
	C229.239517,25.698072 231.121552,27.994081 232.400101,29.653706 
	C233.178558,30.664171 233.036301,32.383934 233.355331,34.031578 
	C235.464981,33.888004 237.212524,33.769077 238.897858,33.654385 
	C239.700455,24.883356 236.104523,20.232100 228.391724,19.636982 
	C221.213196,19.083088 216.531448,23.494963 216.156342,31.479086 
	C215.977753,35.279758 216.268402,39.102474 216.165054,43.638256 
M183.747513,72.175995 
	C184.619339,71.836365 185.491165,71.496742 186.632996,70.321884 
	C186.618607,63.170830 186.604218,56.019779 186.852875,48.135876 
	C187.090866,46.774426 187.328842,45.412975 187.566818,44.051525 
	C189.774414,45.615105 190.967438,47.324108 191.697433,49.212139 
	C194.094360,55.411427 196.479355,61.624207 198.560196,67.933624 
	C199.883469,71.945999 202.095963,73.101929 206.018997,71.539886 
	C206.018997,54.433403 206.018997,37.512005 206.018997,20.440058 
	C203.928619,20.440058 202.090073,20.440058 199.461731,20.440058 
	C199.461731,30.119287 199.461731,39.379948 199.461731,48.640606 
	C198.998962,48.730396 198.536194,48.820190 198.073425,48.909981 
	C197.436554,47.686668 196.689163,46.507393 196.181137,45.232731 
	C193.352203,38.134933 190.365005,31.088633 187.875275,23.871778 
	C186.481476,19.831669 184.252136,19.259928 180.192566,20.780239 
	C180.192566,37.164745 180.192566,53.591267 180.142776,70.722702 
	C181.093658,71.149536 182.044525,71.576370 183.747513,72.175995 
M215.937729,467.895447 
	C216.382950,466.389984 216.476624,464.637848 217.331314,463.419647 
	C222.340561,456.279449 219.507462,444.840118 211.506989,442.698303 
	C206.577850,441.378693 201.191742,441.766113 195.978073,441.384705 
	C195.978073,459.399628 195.978073,476.258759 195.978073,493.648468 
	C199.064972,493.648468 201.846497,493.619690 204.627213,493.654694 
	C209.791382,493.719696 215.166077,493.377716 217.295090,487.855499 
	C219.749481,481.489319 220.886490,474.756287 215.937729,467.895447 
M276.067352,492.635681 
	C285.804321,488.005493 287.193207,478.770508 280.106415,465.778656 
	C285.018280,459.870514 286.019531,451.101868 282.345245,446.171844 
	C278.972748,441.646759 268.837372,439.930176 261.740295,442.646027 
	C261.740295,459.556915 261.740295,476.441650 261.740295,493.806183 
	C266.546112,493.582062 270.997345,493.374512 276.067352,492.635681 
M294.637665,45.499939 
	C294.637665,54.259560 294.637665,63.019180 294.637665,72.150757 
	C298.060486,72.150757 300.883667,71.997787 303.684448,72.183022 
	C309.288757,72.553680 314.279999,71.325905 316.488403,65.708992 
	C318.922089,59.519283 319.387817,52.941570 315.691772,47.044079 
	C314.308441,44.836849 313.834198,44.025330 315.714325,41.762680 
	C321.525635,34.769012 317.971252,21.919214 309.805328,20.543161 
	C305.013428,19.735680 299.974243,20.395845 294.641541,20.395845 
	C294.641541,28.577822 294.641541,36.538883 294.637665,45.499939 
M424.152588,36.502632 
	C424.152588,48.240154 424.152588,59.977673 424.152588,72.111671 
	C428.148804,72.111671 431.454559,72.263763 434.741943,72.082352 
	C443.597809,71.593628 447.906250,66.896828 447.891144,57.960976 
	C447.880493,51.644241 447.845093,45.327435 447.863037,39.010780 
	C447.910919,22.144493 444.944031,19.291285 428.055847,20.023890 
	C427.889893,20.031090 427.721893,20.041883 427.557373,20.025642 
	C424.952026,19.768440 424.004547,20.978495 424.093231,23.536345 
	C424.231445,27.521709 424.146118,31.514826 424.152588,36.502632 
M376.425507,26.953934 
	C377.478546,29.108706 378.531586,31.263479 379.852417,33.966267 
	C380.978638,33.913681 382.724945,33.832146 384.393188,33.754253 
	C385.464661,25.959759 382.398254,21.304859 375.500977,19.745630 
	C369.284729,18.340361 362.392365,21.590303 361.182922,27.537174 
	C359.167511,37.446930 360.009613,43.918983 369.900452,47.245476 
	C378.545746,50.153065 379.578094,52.669537 378.243591,61.515015 
	C377.766998,64.674095 376.046692,66.323410 372.991577,66.464134 
	C369.771759,66.612427 366.987701,65.765808 366.098755,62.121288 
	C365.834930,61.039650 365.727814,59.919796 365.522583,58.655510 
	C363.516907,58.655510 361.770935,58.655510 360.063934,58.655510 
	C359.070251,65.949570 362.858917,71.125023 369.912567,72.437981 
	C376.791748,73.718460 382.868530,70.235649 384.393433,64.138496 
	C387.376587,52.210659 384.489777,46.476826 373.216309,41.925781 
	C372.136108,41.489723 371.016907,41.116745 370.002716,40.557011 
	C366.565979,38.660313 365.226898,33.278622 367.306854,29.059978 
	C369.134247,25.353590 372.168274,24.892456 376.425507,26.953934 
M67.072495,36.162434 
	C67.088806,42.693935 71.320549,45.281197 76.811981,47.124355 
	C84.685966,49.767212 87.301422,54.404835 84.810112,61.963058 
	C84.182747,63.866394 81.155777,66.047348 79.152191,66.127922 
	C77.148735,66.208504 73.496628,64.041313 73.270729,62.470634 
	C72.527527,57.302963 69.686134,58.353405 66.555298,58.918373 
	C65.970970,66.417969 69.747322,71.337723 76.812653,72.545967 
	C83.495201,73.688759 89.071274,70.435722 90.911423,64.320877 
	C94.276482,53.138756 90.787613,46.171841 79.786461,42.105503 
	C73.637146,39.832542 71.538208,36.158638 73.918510,30.159645 
	C74.710037,28.164780 77.473129,25.941114 79.501411,25.767487 
	C81.128510,25.628204 84.237915,28.220888 84.532982,29.965870 
	C85.280182,34.384766 87.564445,34.450264 90.829628,33.665840 
	C92.344231,25.977907 88.719734,20.691732 81.321274,19.697802 
	C72.029205,18.449474 67.527260,23.332685 67.072495,36.162434 
M346.173676,37.997284 
	C345.186279,33.288818 344.402069,28.522863 343.095428,23.904722 
	C342.668549,22.396002 340.881653,21.272085 339.716736,19.972191 
	C338.557648,21.273748 336.720154,22.405848 336.346039,23.903482 
	C333.164948,36.638752 330.221985,49.434055 327.275269,62.226936 
	C326.550079,65.375343 326.072723,68.580826 325.458649,71.882629 
	C327.810699,71.882629 329.543701,71.882629 331.316620,71.882629 
	C331.868774,69.093575 332.221527,66.613930 332.893280,64.223930 
	C333.211121,63.093124 333.901703,61.592590 334.829681,61.185402 
	C340.511353,58.692245 345.891846,61.286648 346.609528,67.305328 
	C347.204071,72.291611 349.343628,73.055618 353.657440,71.528381 
	C351.217285,60.504433 348.816101,49.656624 346.173676,37.997284 
M115.845963,27.962702 
	C116.230293,29.865805 116.614616,31.768908 117.034996,33.850555 
	C119.125984,33.850555 121.165482,33.850555 123.182220,33.850555 
	C123.632141,24.663315 119.794601,19.806919 112.187561,19.522053 
	C104.620384,19.238678 100.308891,23.985117 100.206673,32.721062 
	C100.101662,41.694744 99.935089,50.668388 99.921227,59.642242 
	C99.908485,67.886185 104.424927,72.773651 111.677231,72.596771 
	C119.374367,72.409042 123.408470,67.528023 122.893814,58.804821 
	C119.820488,58.439053 116.748619,57.200603 116.205231,62.466381 
	C116.047623,63.993668 112.747322,66.453499 111.194695,66.241158 
	C109.501823,66.009628 106.944435,63.218571 106.875389,61.460373 
	C106.477837,51.336258 106.515930,41.182259 106.799423,31.049383 
	C106.948891,25.706984 110.556061,24.294340 115.845963,27.962702 
M400.434448,60.401081 
	C400.648132,56.790768 399.737152,52.421509 401.477997,49.841766 
	C402.604523,48.172337 407.650513,49.348183 410.854370,48.771988 
	C411.983337,48.568935 412.857391,46.948296 413.847870,45.974895 
	C412.822876,45.019421 411.926514,43.479763 410.748199,43.220268 
	C407.481903,42.500919 402.672485,43.482822 401.137634,41.609325 
	C399.392273,39.478901 400.527405,34.985634 400.419586,31.519165 
	C400.398926,30.854532 400.484497,30.181610 400.412476,29.524414 
	C400.069427,26.393389 401.713043,25.370804 404.559082,25.417700 
	C408.170532,25.477209 411.783722,25.432095 415.586914,25.432095 
	C415.586914,23.468630 415.586914,21.923153 415.586914,20.037266 
	C409.136566,20.037266 403.013275,19.900776 396.908569,20.176601 
	C395.933411,20.220663 394.242462,22.104404 394.231293,23.152058 
	C394.059540,39.248249 394.111542,55.346825 394.111542,71.760971 
	C401.286469,71.760971 408.291992,71.760971 415.665192,71.760971 
	C415.548889,69.616150 415.455658,67.896454 415.354675,66.034225 
	C411.477783,66.034225 408.153809,65.895844 404.846619,66.072105 
	C401.352234,66.258339 399.862640,64.860443 400.434448,60.401081 
M249.115021,38.498016 
	C249.115021,49.568134 249.115021,60.638256 249.115021,71.896759 
	C256.355133,71.896759 263.097137,71.896759 269.930847,71.896759 
	C269.930847,69.861885 269.930847,68.125160 269.930847,66.074242 
	C266.119324,66.074242 262.625275,65.909401 259.153839,66.119232 
	C255.466080,66.342148 254.521561,64.090584 255.390976,61.444046 
	C256.754608,57.293030 251.383102,50.980442 258.960480,48.997765 
	C261.880005,48.233849 265.166748,48.873211 268.208069,48.873211 
	C269.853638,44.007530 268.136322,42.896488 263.880981,43.080559 
	C255.318466,43.450924 255.310562,43.262901 255.314636,34.917229 
	C255.315445,33.251785 255.437408,31.575043 255.286743,29.923285 
	C254.987473,26.642653 256.528961,25.379992 259.654053,25.447115 
	C263.104034,25.521214 266.556793,25.464033 270.140991,25.464033 
	C270.140991,23.358009 270.140991,21.821114 270.140991,20.304569 
	C263.009521,20.304569 256.259918,20.304569 249.341492,20.304569 
	C249.169525,22.262272 248.911972,23.889874 248.906174,25.518370 
	C248.891953,29.511795 248.993851,33.505634 249.115021,38.498016 
M140.075653,48.499889 
	C140.075653,39.115837 140.075653,29.731783 140.075653,20.356344 
	C137.780609,20.356344 136.053680,20.356344 134.000885,20.356344 
	C134.000885,37.725590 134.000885,54.738400 134.000885,72.170395 
	C136.157394,72.067909 138.040359,71.978432 140.076706,71.881660 
	C140.076706,64.073837 140.076706,56.786777 140.075653,48.499889 
z"/>
<path fill="#EADBAE" opacity="1.000000" stroke="none" 
	d="
M281.038727,187.011719 
	C281.047455,188.053024 281.056213,189.094330 281.036957,190.954849 
	C281.585541,193.856430 282.162140,195.938797 282.738739,198.021164 
	C285.032318,200.676071 286.822113,204.289612 289.712585,205.808563 
	C298.875885,210.623825 300.373535,218.545959 300.022308,227.585739 
	C300.002960,228.083618 300.007141,228.582397 299.569611,229.540344 
	C296.759827,229.998001 294.380798,229.996094 291.532898,229.993683 
	C278.693085,229.970581 266.322113,229.947998 253.964355,229.461578 
	C253.992599,213.664383 254.007599,198.330994 254.218384,182.893433 
	C254.593491,182.406479 254.772797,182.023727 255.329834,181.507721 
	C256.480560,181.500381 257.253571,181.626282 258.050781,182.064087 
	C262.353912,182.147079 266.632751,181.918182 271.331177,181.527985 
	C273.523590,181.465240 275.296448,181.563766 277.164948,181.932297 
	C278.519958,183.805435 279.779327,185.408585 281.038727,187.011719 
z"/>
<path fill="#FCF3CC" opacity="1.000000" stroke="none" 
	d="
M254.022598,182.997620 
	C254.007599,198.330994 253.992599,213.664383 253.975006,229.476593 
	C253.972397,229.955429 253.963699,229.964874 253.549194,229.955582 
	C249.089447,229.635757 245.044205,229.325226 240.954010,228.642059 
	C237.744873,224.856995 236.110046,225.033234 233.550842,229.020325 
	C230.400131,229.021805 227.699448,229.017075 224.992218,228.646423 
	C224.350449,227.580673 223.715240,226.880859 223.080017,226.181061 
	C222.387161,227.126404 221.694305,228.071732 220.627899,229.023926 
	C219.507599,229.044235 218.760818,229.057678 217.843491,228.737122 
	C214.772156,227.600647 211.871368,226.798187 208.970581,225.995728 
	C208.512589,217.072800 213.242004,210.659134 220.264130,206.579102 
	C227.065491,202.627396 227.152161,196.490265 227.934601,190.301987 
	C228.263824,187.698227 227.970123,185.015717 228.421631,181.844086 
	C236.901505,181.418625 244.919312,181.518082 252.995453,181.838715 
	C253.376724,182.372452 253.699661,182.685043 254.022598,182.997620 
z"/>
<path fill="#ED7E2D" opacity="1.000000" stroke="none" 
	d="
M233.511459,151.007904 
	C235.446381,147.242905 237.505157,143.535080 239.276886,139.694824 
	C240.685394,136.641891 242.413437,133.507004 242.800049,130.265442 
	C243.387619,125.338768 242.949295,120.288147 242.923721,115.290298 
	C242.884796,107.681297 248.398224,101.785416 255.018814,102.378799 
	C261.011139,102.915878 265.843292,109.960480 265.253235,116.636879 
	C264.829803,121.428139 264.439972,126.372528 265.184296,131.066376 
	C265.719543,134.441757 268.194458,137.495621 269.723633,140.730972 
	C271.521576,144.534897 273.232452,148.379944 274.716675,152.609787 
	C274.452301,153.012405 273.991455,152.998428 273.904297,152.600784 
	C272.158936,151.800461 270.503418,151.062561 268.842010,151.048904 
	C257.065857,150.952072 245.288452,151.003632 233.511459,151.007904 
z"/>
<path fill="#302126" opacity="1.000000" stroke="none" 
	d="
M216.228577,468.180603 
	C220.886490,474.756287 219.749481,481.489319 217.295090,487.855499 
	C215.166077,493.377716 209.791382,493.719696 204.627213,493.654694 
	C201.846497,493.619690 199.064972,493.648468 195.978073,493.648468 
	C195.978073,476.258759 195.978073,459.399628 195.978073,441.384705 
	C201.191742,441.766113 206.577850,441.378693 211.506989,442.698303 
	C219.507462,444.840118 222.340561,456.279449 217.331314,463.419647 
	C216.476624,464.637848 216.382950,466.389984 216.228577,468.180603 
M202.812439,472.675110 
	C202.816620,475.837860 202.533371,479.037842 202.936096,482.149017 
	C203.166214,483.926758 204.926849,487.106140 205.291031,487.008789 
	C207.772614,486.345337 211.628281,485.419373 212.099701,483.748444 
	C213.123932,480.118042 212.945251,475.864685 212.094009,472.131531 
	C211.764282,470.685516 208.370560,469.557526 206.199631,469.092346 
	C205.283585,468.896057 203.920471,470.786316 202.812439,472.675110 
M212.595886,451.375641 
	C210.421844,450.235199 208.359283,448.684296 206.046127,448.055969 
	C203.000854,447.228790 201.954330,449.555389 202.828995,451.865051 
	C204.222183,455.543945 199.132660,461.565277 206.002289,462.937897 
	C211.947266,464.125793 214.210953,460.126495 212.595886,451.375641 
z"/>
<path fill="#EADBAE" opacity="1.000000" stroke="none" 
	d="
M301.956665,368.006592 
	C301.327118,373.692780 301.286194,379.526367 299.909180,385.025391 
	C298.409973,391.012299 285.889923,400.355164 279.471741,400.024628 
	C272.675690,399.674591 265.850677,399.885620 258.492981,399.477386 
	C253.268265,393.013702 253.923630,385.905029 254.546341,378.873840 
	C264.267883,378.863983 273.529053,378.881653 282.790222,378.874603 
	C291.674896,378.867859 295.551971,376.257721 299.383118,368.000397 
	C300.486420,368.001465 301.221558,368.004028 301.956665,368.006592 
z"/>
<path fill="#FCF3CC" opacity="1.000000" stroke="none" 
	d="
M254.085968,378.890564 
	C253.923630,385.905029 253.268265,393.013702 258.034027,399.437134 
	C250.567108,399.835602 242.897705,400.737549 235.495438,399.711792 
	C229.041092,398.817383 222.136963,396.886139 216.791153,393.354828 
	C210.054749,388.904877 206.680710,381.460632 206.997726,372.903168 
	C207.095947,370.251770 207.013504,367.593750 207.385696,364.470032 
	C208.736923,363.995605 209.716232,363.989899 210.797409,364.367249 
	C210.343262,373.144653 214.137146,378.476685 222.008301,378.744202 
	C232.713181,379.108002 243.446564,378.632965 254.152618,378.612061 
	C254.137527,378.706451 254.085968,378.890564 254.085968,378.890564 
z"/>
<path fill="#EF8722" opacity="1.000000" stroke="none" 
	d="
M273.991455,152.998428 
	C273.991455,152.998428 274.452301,153.012405 274.682800,153.015244 
	C277.007324,153.183289 279.099457,153.452286 281.195831,153.491043 
	C284.983429,153.561066 287.093719,154.971069 286.954712,159.183853 
	C286.767975,164.842361 287.097382,170.519608 286.849548,176.173233 
	C286.783508,177.680054 285.419220,179.129974 283.894897,180.791962 
	C281.115692,181.206039 279.092499,181.434158 277.069336,181.662292 
	C275.296448,181.563766 273.523590,181.465240 270.901489,181.361115 
	C266.043701,181.487747 262.035126,181.619980 258.026550,181.752197 
	C257.253571,181.626282 256.480560,181.500381 255.104919,181.319199 
	C254.333984,181.166153 254.165741,181.068405 253.999222,180.503830 
	C253.985611,171.048492 253.970261,162.059982 254.426483,153.047821 
	C260.263153,153.029892 265.628265,153.035599 271.085632,153.201187 
	C271.451111,153.254639 271.724304,153.148209 272.329895,153.033447 
	C273.105316,153.016205 273.548401,153.007324 273.991455,152.998428 
z"/>
<path fill="#D24C4A" opacity="1.000000" stroke="none" 
	d="
M180.192566,70.017792 
	C180.192566,53.591267 180.192566,37.164745 180.192566,20.780239 
	C184.252136,19.259928 186.481476,19.831669 187.875275,23.871778 
	C190.365005,31.088633 193.352203,38.134933 196.181137,45.232731 
	C196.689163,46.507393 197.436554,47.686668 198.073425,48.909981 
	C198.536194,48.820190 198.998962,48.730396 199.461731,48.640606 
	C199.461731,39.379948 199.461731,30.119287 199.461731,20.440058 
	C202.090073,20.440058 203.928619,20.440058 206.018997,20.440058 
	C206.018997,37.512005 206.018997,54.433403 206.018997,71.539886 
	C202.095963,73.101929 199.883469,71.945999 198.560196,67.933624 
	C196.479355,61.624207 194.094360,55.411427 191.697433,49.212139 
	C190.967438,47.324108 189.774414,45.615105 187.566818,44.051525 
	C187.328842,45.412975 187.090866,46.774426 186.520477,48.204643 
	C186.040833,46.537121 185.893600,44.800827 185.746368,43.064533 
	C185.007797,51.633133 184.970612,60.162094 185.066925,68.689545 
	C185.076263,69.516846 185.911255,70.334824 186.362991,71.157120 
	C185.491165,71.496742 184.619339,71.836365 183.333313,71.755402 
	C182.010269,70.895805 181.101410,70.456795 180.192566,70.017792 
z"/>
<path fill="#F9A12F" opacity="1.000000" stroke="none" 
	d="
M253.954910,153.071457 
	C253.970261,162.059982 253.985611,171.048492 253.718018,180.639160 
	C253.269104,181.366714 253.103119,181.492142 252.937134,181.617554 
	C244.919312,181.518082 236.901505,181.418625 228.421143,181.411194 
	C227.531662,181.363556 227.104706,181.223846 226.098755,180.832214 
	C224.636017,180.465210 223.752289,180.350159 222.868561,180.235092 
	C222.868561,180.235092 222.853958,180.147903 222.810394,179.832703 
	C222.456528,179.017960 222.146210,178.518417 221.835876,178.018860 
	C221.832886,172.366669 221.823502,166.714478 221.828537,161.062286 
	C221.834488,154.396515 222.325104,153.915665 228.814178,153.778336 
	C229.947617,153.754349 231.075027,153.446533 233.055267,153.134109 
	C240.588516,153.022766 247.271713,153.047119 253.954910,153.071457 
z"/>
<path fill="#28181D" opacity="1.000000" stroke="none" 
	d="
M275.757965,492.901306 
	C270.997345,493.374512 266.546112,493.582062 261.740295,493.806183 
	C261.740295,476.441650 261.740295,459.556915 261.740295,442.646027 
	C268.837372,439.930176 278.972748,441.646759 282.345245,446.171844 
	C286.019531,451.101868 285.018280,459.870514 280.106415,465.778656 
	C287.193207,478.770508 285.804321,488.005493 275.757965,492.901306 
M277.904144,478.463196 
	C278.596802,470.193756 277.083435,467.715546 267.835846,469.923248 
	C267.835846,473.962128 267.697510,478.096802 267.904449,482.214142 
	C267.986328,483.842712 268.841736,486.810211 269.335632,486.808258 
	C271.837891,486.798340 274.768463,486.624207 276.679962,485.275818 
	C277.878723,484.430206 277.544525,481.411346 277.904144,478.463196 
M267.979675,448.791931 
	C267.888184,452.603760 267.704956,456.417053 267.767487,460.226349 
	C267.783844,461.220978 268.289703,462.647705 269.042694,463.114380 
	C272.404663,465.197906 278.091797,462.188141 278.745544,458.146851 
	C279.982025,450.503052 276.520508,447.073792 267.979675,448.791931 
z"/>
<path fill="#D04B49" opacity="1.000000" stroke="none" 
	d="
M294.639587,44.999939 
	C294.641541,36.538883 294.641541,28.577822 294.641541,20.395845 
	C299.974243,20.395845 305.013428,19.735680 309.805328,20.543161 
	C317.971252,21.919214 321.525635,34.769012 315.714325,41.762680 
	C313.834198,44.025330 314.308441,44.836849 315.691772,47.044079 
	C319.387817,52.941570 318.922089,59.519283 316.488403,65.708992 
	C314.279999,71.325905 309.288757,72.553680 303.684448,72.183022 
	C300.883667,71.997787 298.060486,72.150757 294.637665,72.150757 
	C294.637665,63.019180 294.637665,54.259560 294.639587,44.999939 
M301.095215,50.871586 
	C301.093231,54.668716 300.948517,58.474262 301.171570,62.258125 
	C301.243469,63.477489 301.996796,65.315224 302.930054,65.711227 
	C306.964508,67.423096 311.294464,64.964882 311.822723,60.618031 
	C312.197327,57.535801 312.480408,54.182308 311.619415,51.304382 
	C311.073944,49.481083 308.559418,47.676090 306.549744,47.017967 
	C304.429749,46.323723 301.333832,46.074997 301.095215,50.871586 
M312.014557,31.003216 
	C310.407104,29.325247 309.078430,27.021547 307.113434,26.146223 
	C305.168884,25.280006 301.754272,24.415049 301.286407,28.245213 
	C300.868988,31.662020 301.036499,35.185749 301.331390,38.629292 
	C301.405548,39.495464 302.834106,40.682381 303.848389,40.959187 
	C309.649780,42.542477 312.189911,39.677998 312.014557,31.003216 
z"/>
<path fill="#D04B49" opacity="1.000000" stroke="none" 
	d="
M424.154053,36.003647 
	C424.146118,31.514826 424.231445,27.521709 424.093231,23.536345 
	C424.004547,20.978495 424.952026,19.768440 427.557373,20.025642 
	C427.721893,20.041883 427.889893,20.031090 428.055847,20.023890 
	C444.944031,19.291285 447.910919,22.144493 447.863037,39.010780 
	C447.845093,45.327435 447.880493,51.644241 447.891144,57.960976 
	C447.906250,66.896828 443.597809,71.593628 434.741943,72.082352 
	C431.454559,72.263763 428.148804,72.111671 424.152588,72.111671 
	C424.152588,59.977673 424.152588,48.240154 424.154053,36.003647 
M434.430664,65.825615 
	C438.507568,66.189774 440.885132,64.314384 440.948181,60.247597 
	C441.092041,50.964806 441.038818,41.678387 440.987793,32.393875 
	C440.981598,31.270863 440.865997,29.625435 440.161713,29.128750 
	C438.163666,27.719643 435.908386,26.465137 433.574097,25.915663 
	C433.092529,25.802307 431.088470,28.988499 431.048981,30.683313 
	C430.805847,41.123577 430.833679,51.574074 431.040436,62.015850 
	C431.065826,63.296898 432.693024,64.546234 434.430664,65.825615 
z"/>
<path fill="#D24C4A" opacity="1.000000" stroke="none" 
	d="
M376.075043,26.724838 
	C372.168274,24.892456 369.134247,25.353590 367.306854,29.059978 
	C365.226898,33.278622 366.565979,38.660313 370.002716,40.557011 
	C371.016907,41.116745 372.136108,41.489723 373.216309,41.925781 
	C384.489777,46.476826 387.376587,52.210659 384.393433,64.138496 
	C382.868530,70.235649 376.791748,73.718460 369.912567,72.437981 
	C362.858917,71.125023 359.070251,65.949570 360.063934,58.655510 
	C361.770935,58.655510 363.516907,58.655510 365.522583,58.655510 
	C365.727814,59.919796 365.834930,61.039650 366.098755,62.121288 
	C366.987701,65.765808 369.771759,66.612427 372.991577,66.464134 
	C376.046692,66.323410 377.766998,64.674095 378.243591,61.515015 
	C379.578094,52.669537 378.545746,50.153065 369.900452,47.245476 
	C360.009613,43.918983 359.167511,37.446930 361.182922,27.537174 
	C362.392365,21.590303 369.284729,18.340361 375.500977,19.745630 
	C382.398254,21.304859 385.464661,25.959759 384.393188,33.754253 
	C382.724945,33.832146 380.978638,33.913681 379.852417,33.966267 
	C378.531586,31.263479 377.478546,29.108706 376.075043,26.724838 
z"/>
<path fill="#D34D4A" opacity="1.000000" stroke="none" 
	d="
M67.009941,35.725708 
	C67.527260,23.332685 72.029205,18.449474 81.321274,19.697802 
	C88.719734,20.691732 92.344231,25.977907 90.829628,33.665840 
	C87.564445,34.450264 85.280182,34.384766 84.532982,29.965870 
	C84.237915,28.220888 81.128510,25.628204 79.501411,25.767487 
	C77.473129,25.941114 74.710037,28.164780 73.918510,30.159645 
	C71.538208,36.158638 73.637146,39.832542 79.786461,42.105503 
	C90.787613,46.171841 94.276482,53.138756 90.911423,64.320877 
	C89.071274,70.435722 83.495201,73.688759 76.812653,72.545967 
	C69.747322,71.337723 65.970970,66.417969 66.555298,58.918373 
	C69.686134,58.353405 72.527527,57.302963 73.270729,62.470634 
	C73.496628,64.041313 77.148735,66.208504 79.152191,66.127922 
	C81.155777,66.047348 84.182747,63.866394 84.810112,61.963058 
	C87.301422,54.404835 84.685966,49.767212 76.811981,47.124355 
	C71.320549,45.281197 67.088806,42.693935 67.009941,35.725708 
z"/>
<path fill="#D24C4A" opacity="1.000000" stroke="none" 
	d="
M346.294312,38.403046 
	C348.816101,49.656624 351.217285,60.504433 353.657440,71.528381 
	C349.343628,73.055618 347.204071,72.291611 346.609528,67.305328 
	C345.891846,61.286648 340.511353,58.692245 334.829681,61.185402 
	C333.901703,61.592590 333.211121,63.093124 332.893280,64.223930 
	C332.221527,66.613930 331.868774,69.093575 331.316620,71.882629 
	C329.543701,71.882629 327.810699,71.882629 325.458649,71.882629 
	C326.072723,68.580826 326.550079,65.375343 327.275269,62.226936 
	C330.221985,49.434055 333.164948,36.638752 336.346039,23.903482 
	C336.720154,22.405848 338.557648,21.273748 339.716736,19.972187 
	C340.881653,21.272085 342.668549,22.396002 343.095428,23.904722 
	C344.402069,28.522863 345.186279,33.288818 346.294312,38.403046 
M336.825958,45.142487 
	C336.369873,47.246113 335.563934,49.355389 335.597778,51.451107 
	C335.616119,52.585228 337.061829,54.625820 337.873352,54.630657 
	C339.759491,54.641903 343.326019,53.509373 343.289001,53.114231 
	C342.767487,47.548019 341.755981,42.027710 340.863373,36.496262 
	C340.135742,36.502056 339.408142,36.507847 338.680542,36.513641 
	C338.106689,39.111900 337.532867,41.710159 336.825958,45.142487 
z"/>
<path fill="#D34D4A" opacity="1.000000" stroke="none" 
	d="
M115.581764,27.621672 
	C110.556061,24.294340 106.948891,25.706984 106.799423,31.049383 
	C106.515930,41.182259 106.477837,51.336258 106.875389,61.460373 
	C106.944435,63.218571 109.501823,66.009628 111.194695,66.241158 
	C112.747322,66.453499 116.047623,63.993668 116.205231,62.466381 
	C116.748619,57.200603 119.820488,58.439053 122.893814,58.804821 
	C123.408470,67.528023 119.374367,72.409042 111.677231,72.596771 
	C104.424927,72.773651 99.908485,67.886185 99.921227,59.642242 
	C99.935089,50.668388 100.101662,41.694744 100.206673,32.721062 
	C100.308891,23.985117 104.620384,19.238678 112.187561,19.522053 
	C119.794601,19.806919 123.632141,24.663315 123.182220,33.850555 
	C121.165482,33.850555 119.125984,33.850555 117.034996,33.850555 
	C116.614616,31.768908 116.230293,29.865805 115.581764,27.621672 
z"/>
<path fill="#D04B49" opacity="1.000000" stroke="none" 
	d="
M400.432800,60.888176 
	C399.862640,64.860443 401.352234,66.258339 404.846619,66.072105 
	C408.153809,65.895844 411.477783,66.034225 415.354675,66.034225 
	C415.455658,67.896454 415.548889,69.616150 415.665192,71.760971 
	C408.291992,71.760971 401.286469,71.760971 394.111542,71.760971 
	C394.111542,55.346825 394.059540,39.248249 394.231293,23.152058 
	C394.242462,22.104404 395.933411,20.220663 396.908569,20.176601 
	C403.013275,19.900776 409.136566,20.037266 415.586914,20.037266 
	C415.586914,21.923153 415.586914,23.468630 415.586914,25.432095 
	C411.783722,25.432095 408.170532,25.477209 404.559082,25.417700 
	C401.713043,25.370804 400.069427,26.393389 400.412476,29.524414 
	C400.484497,30.181610 400.398926,30.854532 400.419586,31.519165 
	C400.527405,34.985634 399.392273,39.478901 401.137634,41.609325 
	C402.672485,43.482822 407.481903,42.500919 410.748199,43.220268 
	C411.926514,43.479763 412.822876,45.019421 413.847870,45.974899 
	C412.857391,46.948296 411.983337,48.568935 410.854370,48.771988 
	C407.650513,49.348183 402.604523,48.172337 401.477997,49.841766 
	C399.737152,52.421509 400.648132,56.790768 400.432800,60.888176 
z"/>
<path fill="#D14643" opacity="1.000000" stroke="none" 
	d="
M249.082031,37.998661 
	C248.993851,33.505634 248.891953,29.511795 248.906174,25.518370 
	C248.911972,23.889874 249.169525,22.262272 249.341492,20.304569 
	C256.259918,20.304569 263.009521,20.304569 270.140991,20.304569 
	C270.140991,21.821114 270.140991,23.358009 270.140991,25.464033 
	C266.556793,25.464033 263.104034,25.521214 259.654053,25.447115 
	C256.528961,25.379992 254.987473,26.642653 255.286743,29.923285 
	C255.437408,31.575043 255.315445,33.251785 255.314636,34.917229 
	C255.310562,43.262901 255.318466,43.450924 263.880981,43.080559 
	C268.136322,42.896488 269.853638,44.007530 268.208069,48.873211 
	C265.166748,48.873211 261.880005,48.233849 258.960480,48.997765 
	C251.383102,50.980442 256.754608,57.293030 255.390976,61.444046 
	C254.521561,64.090584 255.466080,66.342148 259.153839,66.119232 
	C262.625275,65.909401 266.119324,66.074242 269.930847,66.074242 
	C269.930847,68.125160 269.930847,69.861885 269.930847,71.896759 
	C263.097137,71.896759 256.355133,71.896759 249.115021,71.896759 
	C249.115021,60.638256 249.115021,49.568134 249.082031,37.998661 
z"/>
<path fill="#D34D4A" opacity="1.000000" stroke="none" 
	d="
M216.346497,42.915207 
	C216.268402,39.102474 215.977753,35.279758 216.156342,31.479086 
	C216.531448,23.494963 221.213196,19.083088 228.391724,19.636982 
	C236.104523,20.232100 239.700455,24.883356 238.897858,33.654385 
	C237.212524,33.769077 235.464981,33.888004 233.355331,34.031578 
	C233.036301,32.383934 233.178558,30.664171 232.400101,29.653706 
	C231.121552,27.994081 229.239517,25.698072 227.623718,25.707438 
	C225.988159,25.716919 224.231506,28.077486 222.808502,29.660482 
	C222.266830,30.263065 222.395004,31.568666 222.406235,32.551716 
	C222.514420,42.016586 222.689987,51.480736 222.782883,60.945709 
	C222.810318,63.740570 223.635727,66.497612 226.667282,66.143684 
	C228.783447,65.896622 232.088577,63.892097 232.380432,62.235317 
	C233.203781,57.561546 235.585083,58.057480 238.694717,58.883221 
	C239.296097,67.439262 235.458054,72.325821 228.068207,72.644737 
	C220.900375,72.954071 216.085342,67.883568 216.073120,59.966183 
	C216.065933,55.311333 216.117340,50.656395 216.475189,45.886978 
	C216.807983,51.492126 216.807983,57.211800 216.807983,62.931469 
	C217.105637,62.926804 217.403275,62.922138 217.700928,62.917473 
	C217.700928,52.013077 217.700928,41.108685 217.700928,30.204290 
	C217.592209,30.205240 217.483490,30.206190 217.374771,30.207140 
	C217.032013,34.443161 216.689255,38.679184 216.346497,42.915207 
z"/>
<path fill="#302126" opacity="1.000000" stroke="none" 
	d="
M305.018829,493.479462 
	C302.377258,494.188660 300.772949,493.751556 301.225067,490.442413 
	C303.474304,473.980469 297.999756,459.002045 292.233368,444.084412 
	C292.007172,443.499298 291.929047,442.856903 291.717285,441.970734 
	C296.130646,440.689606 298.752991,441.437317 299.707489,446.342865 
	C300.637146,451.121094 302.267273,455.763031 303.589844,460.464813 
	C304.099884,460.490784 304.609924,460.516785 305.119965,460.542786 
	C305.940460,458.727631 306.917114,456.964691 307.545746,455.085358 
	C308.543121,452.103394 309.551422,449.088165 310.114960,446.006500 
	C310.990723,441.217194 313.690399,440.630402 317.968536,442.123413 
	C315.505066,449.127625 313.521515,456.164673 310.577209,462.773682 
	C307.147430,470.472382 308.086487,478.413269 307.901276,486.341034 
	C307.850952,488.495422 307.778748,490.649261 307.355042,492.489685 
	C306.993469,485.114380 306.993469,478.052734 306.993469,470.991089 
	C306.810913,470.993103 306.628387,470.995117 306.445831,470.997131 
	C305.970184,478.491241 305.494507,485.985352 305.018829,493.479462 
z"/>
<path fill="#221519" opacity="1.000000" stroke="none" 
	d="
M230.760056,475.372467 
	C230.610352,475.055542 230.602081,474.734924 231.143860,473.961761 
	C231.619827,472.802032 231.687164,472.091248 231.754517,471.380432 
	C231.872086,470.461304 231.989639,469.542175 232.630112,468.202820 
	C234.051346,463.060822 234.949677,458.338989 235.847992,453.617188 
	C236.972046,449.494843 235.946045,444.583679 240.755615,442.034912 
	C241.801361,442.630981 242.338577,442.819183 242.875809,443.007355 
	C243.193420,443.819672 243.511032,444.631989 243.589569,445.897522 
	C243.593002,446.910492 243.835510,447.470245 244.078033,448.029968 
	C244.838455,451.205170 245.598877,454.380371 246.240753,458.309448 
	C246.395248,459.702393 246.668274,460.341431 246.941315,460.980499 
	C247.072906,461.672272 247.204468,462.364075 247.148529,463.743286 
	C247.341248,465.630859 247.721497,466.831024 248.101746,468.031158 
	C248.348053,468.454376 248.594360,468.877625 248.594833,469.872559 
	C247.705688,471.338287 247.062363,472.232269 246.132217,473.524841 
	C247.643341,473.724884 248.727158,473.868347 249.810974,474.011841 
	C249.983948,474.598602 250.156937,475.185394 250.202682,476.467102 
	C250.365097,478.102020 250.654739,479.042023 250.944366,479.982025 
	C251.158295,480.246033 251.281906,480.547119 251.204193,481.502686 
	C251.449509,483.425018 251.805832,484.729950 252.162155,486.034851 
	C252.332672,486.486847 252.503189,486.938843 252.449585,488.016846 
	C252.459030,490.207825 252.692596,491.772827 252.926147,493.337830 
	C252.288773,493.338135 251.651382,493.338440 250.955536,492.590454 
	C250.756668,490.752197 250.616272,489.662231 250.475876,488.572235 
	C250.104324,488.656525 249.732758,488.740814 249.361191,488.825104 
	C249.817398,490.112762 250.273590,491.400391 250.729782,492.688019 
	C247.303604,494.183350 247.907028,491.430267 247.717987,488.756561 
	C247.638535,482.396973 244.177414,478.993195 238.945786,479.049377 
	C235.146408,479.090179 233.261475,481.959015 233.275970,487.678680 
	C232.961029,494.232605 232.335632,494.731506 227.269775,492.109863 
	C227.687485,490.495453 227.758377,489.517761 227.829254,488.540100 
	C227.978989,487.253845 228.128723,485.967621 228.792770,484.201965 
	C229.378525,482.886444 229.449966,482.050354 229.521393,481.214233 
	C229.562637,480.653717 229.603882,480.093231 230.081848,479.022949 
	C230.599045,477.466278 230.679550,476.419373 230.760056,475.372467 
M241.184540,476.440796 
	C241.453964,476.339203 241.723404,476.237610 242.742050,475.880951 
	C242.367157,470.325562 241.992279,464.770172 241.617386,459.214813 
	C241.045578,459.224121 240.473770,459.233429 239.901962,459.242706 
	C238.881851,463.501160 237.861755,467.759613 236.405655,472.482788 
	C236.404083,472.896729 236.402512,473.310638 236.599808,474.314606 
	C238.068878,474.921021 239.537949,475.527466 241.184540,476.440796 
M230.276749,488.823761 
	C230.383148,488.974640 230.489548,489.125488 230.595947,489.276367 
	C230.575745,489.066193 230.555542,488.856018 230.276749,488.823761 
z"/>
<path fill="#D04B49" opacity="1.000000" stroke="none" 
	d="
M140.076172,48.999802 
	C140.076706,56.786777 140.076706,64.073837 140.076706,71.881660 
	C138.040359,71.978432 136.157394,72.067909 134.000885,72.170395 
	C134.000885,54.738400 134.000885,37.725590 134.000885,20.356344 
	C136.053680,20.356344 137.780609,20.356344 140.075653,20.356344 
	C140.075653,29.731783 140.075653,39.115837 140.076172,48.999802 
z"/>
<path fill="#D2413D" opacity="1.000000" stroke="none" 
	d="
M169.005371,66.376663 
	C169.444855,66.275711 169.884338,66.174751 170.657227,66.561813 
	C170.766418,68.678009 170.542206,70.306190 170.318008,71.934372 
	C170.087692,71.906616 169.857376,71.878853 169.089676,71.467728 
	C165.053162,71.048119 161.545593,71.149422 158.057266,70.936195 
	C154.693863,70.730591 152.815048,69.387573 152.897751,65.330208 
	C153.166000,52.169910 153.055145,39.000294 152.958313,25.835238 
	C152.932999,22.391661 154.180801,21.336885 156.157394,23.170393 
	C156.598480,24.182110 157.039566,25.193827 157.480652,26.205545 
	C157.303268,26.907253 157.125900,27.608963 156.624847,28.963638 
	C156.475113,32.735020 156.649078,35.853432 156.823044,38.971844 
	C156.871292,45.822678 162.072174,42.304611 165.835236,43.373577 
	C167.723083,43.751881 168.905426,43.856304 170.087769,43.960724 
	C170.116638,45.046646 170.145493,46.132565 169.909409,47.671623 
	C169.325348,48.235069 169.093094,48.442585 168.947723,48.747307 
	C166.924988,48.761276 164.902267,48.775246 162.201813,48.537457 
	C160.339539,48.454742 159.154999,48.623783 157.970459,48.792824 
	C158.068649,54.474792 158.166840,60.156761 158.739304,66.404190 
	C162.477524,66.771988 165.741440,66.574326 169.005371,66.376663 
z"/>
<path fill="#EFE3B8" opacity="1.000000" stroke="none" 
	d="
M301.987488,367.538086 
	C301.221558,368.004028 300.486420,368.001465 299.342896,367.532837 
	C298.867340,347.125977 298.800171,327.185150 298.813721,306.796234 
	C298.940857,304.229706 298.987305,302.111298 299.254425,299.847595 
	C299.327942,299.137177 299.180817,298.572021 299.022888,297.537964 
	C299.023773,289.385101 299.035461,281.701172 299.409912,274.013885 
	C300.496674,274.002472 301.220703,273.994476 301.944702,273.986450 
	C301.969208,305.014160 301.993774,336.041840 301.987488,367.538086 
z"/>
<path fill="#D14643" opacity="1.000000" stroke="none" 
	d="
M157.850159,26.104649 
	C157.039566,25.193827 156.598480,24.182110 156.157394,23.170393 
	C154.180801,21.336885 152.932999,22.391661 152.958313,25.835238 
	C153.055145,39.000294 153.166000,52.169910 152.897751,65.330208 
	C152.815048,69.387573 154.693863,70.730591 158.057266,70.936195 
	C161.545593,71.149422 165.053162,71.048119 169.052063,71.121780 
	C163.437759,71.622993 157.323700,72.086800 150.953064,72.570068 
	C150.953064,54.694660 150.953064,37.672501 150.953064,20.311405 
	C157.916824,20.311405 164.631790,20.311405 171.735962,20.311405 
	C171.735962,21.887444 171.735962,23.389488 171.735962,25.103300 
	C167.053909,25.415218 162.636780,25.709486 157.850159,26.104649 
z"/>
<path fill="#FDF6D5" opacity="1.000000" stroke="none" 
	d="
M210.695526,363.984192 
	C209.716232,363.989899 208.736923,363.995605 207.391251,364.003326 
	C206.900406,358.845764 206.661163,353.685822 206.676544,348.526642 
	C206.704330,339.210175 206.824265,329.892883 207.024002,320.578430 
	C207.137421,315.290192 207.485504,310.006927 208.268341,304.353943 
	C209.514709,303.998230 210.220627,304.009979 210.945877,304.400757 
	C210.997269,305.538513 211.029327,306.297302 211.054276,307.040283 
	C211.047150,307.024445 211.056824,307.042847 210.710144,307.201050 
	C208.638565,310.054504 207.529953,312.711029 210.871796,315.548950 
	C210.873627,320.638367 210.852371,325.268463 210.548813,329.962646 
	C210.449524,330.720581 210.632553,331.414429 210.837723,332.454956 
	C210.842148,333.495575 210.824448,334.189514 210.570770,334.925385 
	C210.092636,335.145782 209.850510,335.324249 209.608398,335.502747 
	C210.007919,335.707367 210.407440,335.911987 210.834167,336.576813 
	C210.806091,346.019409 210.750809,355.001801 210.695526,363.984192 
z"/>
<path fill="#FCF1C7" opacity="1.000000" stroke="none" 
	d="
M210.926544,304.021759 
	C210.220627,304.009979 209.514709,303.998230 208.458893,303.976013 
	C208.393585,282.804962 208.694000,261.644592 208.950211,240.483673 
	C209.005402,235.924454 208.901123,231.363297 208.920441,226.399384 
	C211.871368,226.798187 214.772156,227.600647 217.642334,228.997620 
	C212.731201,232.405411 210.762039,236.336075 210.856674,242.234940 
	C211.186966,262.825623 210.948746,283.425415 210.926544,304.021759 
z"/>
<path fill="#EEDAAC" opacity="1.000000" stroke="none" 
	d="
M301.968811,273.519592 
	C301.220703,273.994476 300.496674,274.002472 299.391052,273.543579 
	C299.013855,263.676849 298.531342,254.242981 299.186218,244.888733 
	C299.658234,238.146423 297.403625,233.510956 292.001740,229.994202 
	C294.380798,229.996094 296.759827,229.998001 299.540833,230.000061 
	C300.106720,231.835434 300.270660,233.670654 300.819031,235.977753 
	C301.387329,236.710114 301.630035,236.892059 301.931610,236.995499 
	C301.952026,249.014587 301.972443,261.033691 301.968811,273.519592 
z"/>
<path fill="#DE672A" opacity="1.000000" stroke="none" 
	d="
M254.426483,153.047821 
	C247.271713,153.047119 240.588516,153.022766 233.434082,152.995148 
	C233.024857,152.530548 233.086899,152.069229 233.330200,151.307892 
	C245.288452,151.003632 257.065857,150.952072 268.842010,151.048904 
	C270.503418,151.062561 272.158936,151.800461 273.904297,152.600784 
	C273.548401,153.007324 273.105316,153.016205 272.078918,153.024567 
	C271.328217,153.029785 271.160797,153.035553 270.993378,153.041321 
	C265.628265,153.035599 260.263153,153.029892 254.426483,153.047821 
z"/>
<path fill="#302126" opacity="1.000000" stroke="none" 
	d="
M233.536621,487.352539 
	C233.261475,481.959015 235.146408,479.090179 238.945786,479.049377 
	C244.177414,478.993195 247.638535,482.396973 247.772491,488.285767 
	C247.078033,486.717590 246.488174,484.696411 245.923248,482.760651 
	C234.851532,481.477661 234.851532,481.477661 233.536621,487.352539 
z"/>
<path fill="#D2413D" opacity="1.000000" stroke="none" 
	d="
M186.497986,70.739502 
	C185.911255,70.334824 185.076263,69.516846 185.066925,68.689545 
	C184.970612,60.162094 185.007797,51.633133 185.746368,43.064533 
	C185.893600,44.800827 186.040833,46.537121 186.388947,48.571068 
	C186.604218,56.019779 186.618607,63.170830 186.497986,70.739502 
z"/>
<path fill="#D2413D" opacity="1.000000" stroke="none" 
	d="
M216.255768,43.276733 
	C216.689255,38.679184 217.032013,34.443161 217.374771,30.207140 
	C217.483490,30.206190 217.592209,30.205240 217.700928,30.204290 
	C217.700928,41.108685 217.700928,52.013077 217.700928,62.917473 
	C217.403275,62.922138 217.105637,62.926804 216.807983,62.931469 
	C216.807983,57.211800 216.807983,51.492126 216.586884,45.437859 
	C216.298859,44.614925 216.231949,44.126591 216.255768,43.276733 
z"/>
<path fill="#221519" opacity="1.000000" stroke="none" 
	d="
M305.287720,493.580017 
	C305.494507,485.985352 305.970184,478.491241 306.445831,470.997131 
	C306.628387,470.995117 306.810913,470.993103 306.993469,470.991089 
	C306.993469,478.052734 306.993469,485.114380 307.022156,492.652283 
	C306.552765,493.312531 306.054688,493.496552 305.287720,493.580017 
z"/>
<path fill="#302126" opacity="1.000000" stroke="none" 
	d="
M235.593353,453.873413 
	C234.949677,458.338989 234.051346,463.060822 232.818878,467.906982 
	C233.436050,463.397430 234.387375,458.763519 235.593353,453.873413 
z"/>
<path fill="#EFE3B8" opacity="1.000000" stroke="none" 
	d="
M277.164948,181.932297 
	C279.092499,181.434158 281.115692,181.206039 283.577759,181.006836 
	C283.189301,182.860672 282.361938,184.685562 281.286652,186.761078 
	C279.779327,185.408585 278.519958,183.805435 277.164948,181.932297 
z"/>
<path fill="#D14643" opacity="1.000000" stroke="none" 
	d="
M168.566711,66.246780 
	C165.741440,66.574326 162.477524,66.771988 159.104401,66.603920 
	C162.039490,66.197762 165.083786,66.157326 168.566711,66.246780 
z"/>
<path fill="#D57371" opacity="1.000000" stroke="none" 
	d="
M157.058807,38.663589 
	C156.649078,35.853432 156.475113,32.735020 156.564911,29.322676 
	C156.983978,32.137611 157.139267,35.246475 157.058807,38.663589 
z"/>
<path fill="#EFE3B8" opacity="1.000000" stroke="none" 
	d="
M282.814758,197.602905 
	C282.162140,195.938797 281.585541,193.856430 281.026672,191.345245 
	C281.659882,193.005844 282.275330,195.095245 282.814758,197.602905 
z"/>
<path fill="#302126" opacity="1.000000" stroke="none" 
	d="
M249.867401,473.663910 
	C248.727158,473.868347 247.643341,473.724884 246.132217,473.524841 
	C247.062363,472.232269 247.705688,471.338287 248.595093,470.249634 
	C249.202087,471.141968 249.562958,472.228973 249.867401,473.663910 
z"/>
<path fill="#302126" opacity="1.000000" stroke="none" 
	d="
M253.123169,493.452393 
	C252.692596,491.772827 252.459030,490.207825 252.435272,488.381958 
	C252.870102,489.936371 253.095139,491.751648 253.123169,493.452393 
z"/>
<path fill="#302126" opacity="1.000000" stroke="none" 
	d="
M248.266815,467.737610 
	C247.721497,466.831024 247.341248,465.630859 247.032715,464.079529 
	C247.546936,464.966919 247.989410,466.205475 248.266815,467.737610 
z"/>
<path fill="#302126" opacity="1.000000" stroke="none" 
	d="
M252.273468,485.694824 
	C251.805832,484.729950 251.449509,483.425018 251.165329,481.746521 
	C251.619904,482.700195 252.002335,484.027496 252.273468,485.694824 
z"/>
<path fill="#D14643" opacity="1.000000" stroke="none" 
	d="
M170.644135,71.978638 
	C170.542206,70.306190 170.766418,68.678009 170.987793,66.649231 
	C170.980042,68.173393 170.975159,70.098152 170.644135,71.978638 
z"/>
<path fill="#D57371" opacity="1.000000" stroke="none" 
	d="
M170.016693,43.646835 
	C168.905426,43.856304 167.723083,43.751881 166.286118,43.403877 
	C167.336212,43.217846 168.640915,43.275394 170.016693,43.646835 
z"/>
<path fill="#302126" opacity="1.000000" stroke="none" 
	d="
M230.557343,475.580170 
	C230.679550,476.419373 230.599045,477.466278 230.213776,478.772400 
	C230.057571,477.950378 230.206100,476.869110 230.557343,475.580170 
z"/>
<path fill="#302126" opacity="1.000000" stroke="none" 
	d="
M250.768982,492.653503 
	C250.273590,491.400391 249.817398,490.112762 249.361191,488.825104 
	C249.732758,488.740814 250.104324,488.656525 250.475876,488.572235 
	C250.616272,489.662231 250.756668,490.752197 250.901337,492.249451 
	C250.905624,492.656708 250.808197,492.619019 250.768982,492.653503 
z"/>
<path fill="#302126" opacity="1.000000" stroke="none" 
	d="
M251.045944,479.727722 
	C250.654739,479.042023 250.365097,478.102020 250.153839,476.772156 
	C250.537308,477.412659 250.842422,478.443024 251.045944,479.727722 
z"/>
<path fill="#302126" opacity="1.000000" stroke="none" 
	d="
M227.640411,488.734680 
	C227.758377,489.517761 227.687485,490.495453 227.341187,491.724243 
	C227.194382,490.959991 227.322983,489.944641 227.640411,488.734680 
z"/>
<path fill="#EFE3B8" opacity="1.000000" stroke="none" 
	d="
M222.941925,180.535156 
	C223.752289,180.350159 224.636017,180.465210 225.760864,180.814407 
	C225.006424,180.977432 224.010849,180.906326 222.941925,180.535156 
z"/>
<path fill="#D2413D" opacity="1.000000" stroke="none" 
	d="
M180.167664,70.370247 
	C181.101410,70.456795 182.010269,70.895805 182.957260,71.669006 
	C182.044525,71.576370 181.093658,71.149536 180.167664,70.370247 
z"/>
<path fill="#D57371" opacity="1.000000" stroke="none" 
	d="
M158.372864,48.873642 
	C159.154999,48.623783 160.339539,48.454742 161.770874,48.486362 
	C160.936859,48.776173 159.856079,48.865318 158.372864,48.873642 
z"/>
<path fill="#302126" opacity="1.000000" stroke="none" 
	d="
M229.306946,481.438324 
	C229.449966,482.050354 229.378525,482.886444 229.009811,483.878693 
	C228.839188,483.244019 228.965851,482.453217 229.306946,481.438324 
z"/>
<path fill="#EFE3B8" opacity="1.000000" stroke="none" 
	d="
M221.633362,178.193085 
	C222.146210,178.518417 222.456528,179.017960 222.766785,179.825592 
	C222.321411,179.544876 221.876114,178.956100 221.633362,178.193085 
z"/>
<path fill="#302126" opacity="1.000000" stroke="none" 
	d="
M231.552399,471.527527 
	C231.687164,472.091248 231.619827,472.802032 231.277344,473.754822 
	C231.118240,473.222717 231.234268,472.448700 231.552399,471.527527 
z"/>
<path fill="#302126" opacity="1.000000" stroke="none" 
	d="
M242.912537,442.774384 
	C242.338577,442.819183 241.801361,442.630981 241.121002,442.186768 
	C241.635010,442.134277 242.292145,442.337860 242.912537,442.774384 
z"/>
<path fill="#302126" opacity="1.000000" stroke="none" 
	d="
M247.058807,460.765015 
	C246.668274,460.341431 246.395248,459.702393 246.199432,458.700409 
	C246.576538,459.074829 246.876419,459.812164 247.058807,460.765015 
z"/>
<path fill="#302126" opacity="1.000000" stroke="none" 
	d="
M244.182053,447.783508 
	C243.835510,447.470245 243.593002,446.910492 243.529236,446.224609 
	C243.900665,446.577972 244.093369,447.057495 244.182053,447.783508 
z"/>
<path fill="#D57371" opacity="1.000000" stroke="none" 
	d="
M169.223663,48.808365 
	C169.093094,48.442585 169.325348,48.235069 169.879669,48.080826 
	C169.909790,48.314411 169.704681,48.591919 169.223663,48.808365 
z"/>
<path fill="#EFE3B8" opacity="1.000000" stroke="none" 
	d="
M301.861755,236.765671 
	C301.630035,236.892059 301.387329,236.710114 301.102905,236.242264 
	C301.344269,236.077759 301.607483,236.244751 301.861755,236.765671 
z"/>
<path fill="#F1BE8C" opacity="1.000000" stroke="none" 
	d="
M291.532898,229.993683 
	C297.403625,233.510956 299.658234,238.146423 299.186218,244.888733 
	C298.531342,254.242981 299.013855,263.676849 299.028290,273.546936 
	C299.035461,281.701172 299.023773,289.385101 298.791565,297.678467 
	C298.725311,298.856262 298.879547,299.424561 299.033783,299.992889 
	C298.987305,302.111298 298.940857,304.229706 298.375458,306.745667 
	C292.211304,307.127594 286.566071,307.111908 280.802368,306.846558 
	C280.367554,306.431976 280.051178,306.267151 279.620239,305.758759 
	C279.575409,303.972198 279.645142,302.529175 280.020935,300.881775 
	C280.531189,300.064911 280.911987,299.452972 280.913666,298.839966 
	C280.953064,284.544983 280.975464,270.249725 280.906311,255.955017 
	C280.901398,254.940628 280.168304,253.929733 279.666748,252.539749 
	C279.672424,249.108307 279.785095,246.054306 280.085449,242.932922 
	C280.348694,242.757904 280.511719,242.592773 280.485107,242.552338 
	C280.350555,242.347717 280.166748,242.175491 279.984070,241.661392 
	C280.055725,240.899338 280.143463,240.467804 280.511658,239.979294 
	C280.974701,239.308075 281.157318,238.693832 281.339905,238.079590 
	C280.576813,237.987244 279.813721,237.894882 278.601746,237.762421 
	C276.519562,237.761383 274.849365,237.605667 273.265717,237.906204 
	C272.162964,238.115494 271.179108,238.950974 270.142120,239.506714 
	C271.090973,240.362152 272.039795,241.217560 273.065552,242.479950 
	C273.452850,249.889618 273.677338,256.897919 274.134094,263.891052 
	C274.248474,265.642792 275.109314,267.345825 275.711029,269.527283 
	C275.737091,275.965881 275.679230,281.948425 275.309570,288.044189 
	C275.207916,289.796600 275.418030,291.435760 275.706696,293.487976 
	C275.727722,295.577423 275.670227,297.253876 275.290161,299.051086 
	C274.381989,301.785248 273.796387,304.398651 272.758545,307.033508 
	C270.200134,307.024567 268.093964,306.994171 266.026001,306.615234 
	C267.051880,304.984344 268.601654,303.825500 268.915802,302.395203 
	C269.684448,298.895508 270.016144,295.275513 270.151917,291.689880 
	C270.170288,291.204803 268.052277,290.638824 266.590820,290.008148 
	C264.034668,289.291565 261.811218,288.677185 259.206726,288.077026 
	C258.240204,288.482025 257.654724,288.872772 257.133514,289.272461 
	C257.197784,289.281433 257.240479,289.404022 256.822693,289.279236 
	C255.605301,287.972870 254.154633,286.813141 254.114105,285.606079 
	C253.888458,278.885162 253.915253,272.150482 254.085144,265.426300 
	C254.116272,264.194916 255.204865,262.990234 256.099609,261.918701 
	C259.896454,264.664581 263.440674,264.949158 266.647003,261.749847 
	C268.888885,259.512878 271.042694,256.978394 268.083069,253.338684 
	C266.664520,252.010574 265.309753,251.004196 263.736389,249.776459 
	C261.204254,249.756973 258.890717,249.958878 256.140198,250.077454 
	C255.136459,248.609085 254.135132,247.240997 254.080353,245.835999 
	C253.874344,240.552139 253.976791,235.256256 253.963699,229.964874 
	C253.963699,229.964874 253.972397,229.955429 253.961761,229.940414 
	C266.322113,229.947998 278.693085,229.970581 291.532898,229.993683 
z"/>
<path fill="#EFE3B8" opacity="1.000000" stroke="none" 
	d="
M258.050781,182.064087 
	C262.035126,181.619980 266.043701,181.487747 270.481934,181.522400 
	C266.632751,181.918182 262.353912,182.147079 258.050781,182.064087 
z"/>
<path fill="#EFE3B8" opacity="1.000000" stroke="none" 
	d="
M252.995453,181.838715 
	C253.103119,181.492142 253.269104,181.366714 253.716278,181.105972 
	C254.165741,181.068405 254.333984,181.166153 254.727173,181.452438 
	C254.772797,182.023727 254.593491,182.406479 254.218384,182.893433 
	C253.699661,182.685043 253.376724,182.372452 252.995453,181.838715 
z"/>
<path fill="#F9D39F" opacity="1.000000" stroke="none" 
	d="
M253.549194,229.955582 
	C253.976791,235.256256 253.874344,240.552139 254.080353,245.835999 
	C254.135132,247.240997 255.136459,248.609085 255.919556,250.396210 
	C253.030762,254.366394 253.546677,258.043549 255.805328,261.773224 
	C255.204865,262.990234 254.116272,264.194916 254.085144,265.426300 
	C253.915253,272.150482 253.888458,278.885162 254.114105,285.606079 
	C254.154633,286.813141 255.605301,287.972870 256.629456,289.565613 
	C252.860870,294.813202 252.856018,297.478210 256.435669,302.878143 
	C255.695755,304.370972 255.351105,305.686951 254.779266,307.063599 
	C254.552078,307.124268 254.093109,307.226959 253.687439,307.309814 
	C250.817505,307.586334 248.349182,307.986572 245.889633,307.938507 
	C234.278915,307.711609 222.670578,307.361969 211.061401,307.056091 
	C211.029327,306.297302 210.997269,305.538513 210.945877,304.400757 
	C210.948746,283.425415 211.186966,262.825623 210.856674,242.234940 
	C210.762039,236.336075 212.731201,232.405411 217.812881,229.331635 
	C218.760818,229.057678 219.507599,229.044235 221.027618,229.029510 
	C222.866837,229.022934 223.932816,229.017639 224.998779,229.012344 
	C227.699448,229.017075 230.400131,229.021805 233.988190,229.027130 
	C236.916718,229.023392 238.957825,229.019028 240.998947,229.014679 
	C245.044205,229.325226 249.089447,229.635757 253.549194,229.955582 
M218.179184,259.501282 
	C218.766571,259.979034 219.347931,260.863953 219.942245,260.872711 
	C227.373672,260.982300 234.809311,261.054688 242.236725,260.861450 
	C243.120956,260.838470 243.962891,259.188873 244.886353,257.545593 
	C244.142807,256.715729 243.414429,255.181381 242.653366,255.164993 
	C235.103790,255.002441 227.548615,255.066071 219.995453,255.121918 
	C217.340286,255.141571 216.924347,256.508026 218.179184,259.501282 
M218.437271,279.233307 
	C226.903854,279.429626 235.370422,279.625946 243.836990,279.822266 
	C243.721207,279.428131 243.605423,279.033966 243.932068,278.136475 
	C243.960144,276.799316 243.988235,275.462128 243.847748,273.308929 
	C243.374100,272.908844 242.905075,272.166382 242.426132,272.159943 
	C235.007141,272.059937 227.585785,271.994507 220.168488,272.123108 
	C219.429260,272.135895 218.712799,273.463959 217.707321,274.708679 
	C217.833069,275.949249 217.958817,277.189819 218.437271,279.233307 
M216.894775,296.558655 
	C218.005035,297.168488 219.104080,298.281342 220.227386,298.306396 
	C227.387115,298.466034 234.554871,298.482025 241.712616,298.281311 
	C242.785980,298.251221 243.820526,296.836639 244.873016,296.062531 
	C243.702957,295.418823 242.545776,294.247437 241.360733,294.218536 
	C234.535019,294.052032 227.700943,294.078033 220.874207,294.234894 
	C219.540161,294.265533 218.225937,295.158966 216.894775,296.558655 
z"/>
<path fill="#FCF1C7" opacity="1.000000" stroke="none" 
	d="
M240.954010,228.642059 
	C238.957825,229.019028 236.916718,229.023392 234.438248,229.020935 
	C236.110046,225.033234 237.744873,224.856995 240.954010,228.642059 
z"/>
<path fill="#FCF1C7" opacity="1.000000" stroke="none" 
	d="
M224.992218,228.646423 
	C223.932816,229.017639 222.866837,229.022934 221.401154,229.022644 
	C221.694305,228.071732 222.387161,227.126404 223.080017,226.181061 
	C223.715240,226.880859 224.350449,227.580673 224.992218,228.646423 
z"/>
<path fill="#EFEFEF" opacity="1.000000" stroke="none" 
	d="
M202.786499,472.201660 
	C203.920471,470.786316 205.283585,468.896057 206.199631,469.092346 
	C208.370560,469.557526 211.764282,470.685516 212.094009,472.131531 
	C212.945251,475.864685 213.123932,480.118042 212.099701,483.748444 
	C211.628281,485.419373 207.772614,486.345337 205.291031,487.008789 
	C204.926849,487.106140 203.166214,483.926758 202.936096,482.149017 
	C202.533371,479.037842 202.816620,475.837860 202.786499,472.201660 
z"/>
<path fill="#EFEFEF" opacity="1.000000" stroke="none" 
	d="
M212.765396,451.767639 
	C214.210953,460.126495 211.947266,464.125793 206.002289,462.937897 
	C199.132660,461.565277 204.222183,455.543945 202.828995,451.865051 
	C201.954330,449.555389 203.000854,447.228790 206.046127,448.055969 
	C208.359283,448.684296 210.421844,450.235199 212.765396,451.767639 
z"/>
<path fill="#E68F44" opacity="1.000000" stroke="none" 
	d="
M254.093109,307.226959 
	C254.093109,307.226959 254.552078,307.124268 255.179169,307.089844 
	C256.874451,307.022552 257.942596,306.989716 259.446594,306.980225 
	C261.917542,306.990295 263.952698,306.977051 265.987823,306.963776 
	C268.093964,306.994171 270.200134,307.024567 273.057983,307.054993 
	C274.421143,307.052856 275.032593,307.050690 275.719666,307.438904 
	C275.655090,310.199738 275.514862,312.570251 274.967407,315.006409 
	C272.448669,317.385315 271.571869,319.534760 275.454926,321.357849 
	C275.497406,322.052338 275.440216,322.455048 274.954041,322.957001 
	C274.074249,323.490021 273.234650,323.919281 273.229584,324.358154 
	C273.100372,335.555298 273.035828,346.753571 273.104919,357.950714 
	C273.107117,358.305786 274.640625,358.651398 275.598328,359.365936 
	C275.523987,361.192352 275.311615,362.654205 274.853638,363.821960 
	C272.635010,362.941864 270.509155,361.967651 270.104980,365.686523 
	C271.323395,370.997070 275.274200,368.281830 277.978577,368.704041 
	C279.350067,368.918152 280.921448,367.851868 282.402466,367.364441 
	C281.712952,366.397064 280.864502,365.502289 280.380096,364.441284 
	C279.925751,363.446136 279.647705,362.274902 279.648987,361.181580 
	C279.670135,343.213623 279.747833,325.245728 280.087524,307.218445 
	C280.548462,307.138123 280.734680,307.117188 280.920868,307.096252 
	C286.566071,307.111908 292.211304,307.127594 298.294769,307.193787 
	C298.800171,327.185150 298.867340,347.125977 298.974731,367.534332 
	C295.551971,376.257721 291.674896,378.867859 282.790222,378.874603 
	C273.529053,378.881653 264.267883,378.863983 254.546341,378.873840 
	C254.085968,378.890564 254.137527,378.706451 254.100143,378.190460 
	C254.046967,371.892883 253.900726,366.107941 254.049469,360.330597 
	C254.222763,353.599518 254.654022,346.875061 255.317566,340.230652 
	C256.622131,340.963440 257.512909,341.769318 258.555786,342.234039 
	C261.765594,343.664398 265.275391,343.599365 266.975800,340.480408 
	C268.297546,338.055969 269.169250,334.091003 268.042023,331.991272 
	C266.917847,329.897247 263.131531,329.046234 260.355133,328.123138 
	C259.340820,327.785889 257.874481,328.808136 256.176453,329.117615 
	C255.163940,327.655731 254.132034,326.298859 254.094269,324.914886 
	C253.933487,319.023285 254.067017,313.123657 254.093109,307.226959 
z"/>
<path fill="#F7AC56" opacity="1.000000" stroke="none" 
	d="
M254.973343,340.147736 
	C254.654022,346.875061 254.222763,353.599518 254.049469,360.330597 
	C253.900726,366.107941 254.046967,371.892883 254.115234,378.096069 
	C243.446564,378.632965 232.713181,379.108002 222.008301,378.744202 
	C214.137146,378.476685 210.343262,373.144653 210.797394,364.367249 
	C210.750809,355.001801 210.806091,346.019409 210.892059,336.268036 
	C210.884094,335.293854 210.845428,335.088654 210.806763,334.883453 
	C210.824448,334.189514 210.842148,333.495575 210.918945,332.089478 
	C210.929062,330.884399 210.880096,330.391510 210.831131,329.898590 
	C210.852371,325.268463 210.873627,320.638367 210.949768,315.102570 
	C211.022034,311.812225 211.039429,309.427521 211.056824,307.042847 
	C211.056824,307.042847 211.047150,307.024445 211.054276,307.040283 
	C222.670578,307.361969 234.278915,307.711609 245.889633,307.938507 
	C248.349182,307.986572 250.817505,307.586334 253.687439,307.309814 
	C254.067017,313.123657 253.933487,319.023285 254.094269,324.914886 
	C254.132034,326.298859 255.163940,327.655731 255.965042,329.423218 
	C252.743866,332.904633 252.705368,336.390137 254.973343,340.147736 
M228.542343,333.470093 
	C225.718292,333.483276 222.875763,333.316376 220.079803,333.603241 
	C219.041885,333.709686 218.113129,334.880035 217.134583,335.565186 
	C218.176224,336.334686 219.199081,337.739197 220.262589,337.770660 
	C227.234039,337.977112 234.216797,337.982178 241.189194,337.799133 
	C242.346649,337.768738 243.471436,336.494873 244.611328,335.795624 
	C243.403870,335.024323 242.240875,333.686707 240.980637,333.587738 
	C237.182617,333.289581 233.346756,333.473206 228.542343,333.470093 
M242.880478,357.909882 
	C243.511368,357.106323 244.142258,356.302765 244.773132,355.499237 
	C243.839386,354.958008 242.914886,353.966797 241.970398,353.947357 
	C235.002640,353.803802 228.027954,353.747345 221.062988,353.937988 
	C219.745117,353.974060 218.460754,355.234039 217.160904,355.929260 
	C218.464279,356.605652 219.751740,357.828461 221.073730,357.867004 
	C228.044891,358.070251 235.024765,357.974823 242.880478,357.909882 
M242.136398,318.338989 
	C243.064148,317.442413 243.991898,316.545837 244.919662,315.649292 
	C243.816284,315.139923 242.720566,314.210083 241.608276,314.189819 
	C234.648560,314.062988 227.682907,314.052521 220.725098,314.231445 
	C219.531784,314.262085 218.366608,315.386719 217.188431,316.005951 
	C218.396439,316.748871 219.583313,318.091614 220.815979,318.135040 
	C227.605194,318.374237 234.405563,318.295959 242.136398,318.338989 
z"/>
<path fill="#ED7E2D" opacity="1.000000" stroke="none" 
	d="
M271.085632,153.201187 
	C271.160797,153.035553 271.328217,153.029785 271.746582,153.032898 
	C271.724304,153.148209 271.451111,153.254639 271.085632,153.201187 
z"/>
<path fill="#EFEFEF" opacity="1.000000" stroke="none" 
	d="
M277.901123,478.915344 
	C277.544525,481.411346 277.878723,484.430206 276.679962,485.275818 
	C274.768463,486.624207 271.837891,486.798340 269.335632,486.808258 
	C268.841736,486.810211 267.986328,483.842712 267.904449,482.214142 
	C267.697510,478.096802 267.835846,473.962128 267.835846,469.923248 
	C277.083435,467.715546 278.596802,470.193756 277.901123,478.915344 
z"/>
<path fill="#EFEFEF" opacity="1.000000" stroke="none" 
	d="
M268.271118,448.425415 
	C276.520508,447.073792 279.982025,450.503052 278.745544,458.146851 
	C278.091797,462.188141 272.404663,465.197906 269.042694,463.114380 
	C268.289703,462.647705 267.783844,461.220978 267.767487,460.226349 
	C267.704956,456.417053 267.888184,452.603760 268.271118,448.425415 
z"/>
<path fill="#FAF2F2" opacity="1.000000" stroke="none" 
	d="
M301.107178,50.414867 
	C301.333832,46.074997 304.429749,46.323723 306.549744,47.017967 
	C308.559418,47.676090 311.073944,49.481083 311.619415,51.304382 
	C312.480408,54.182308 312.197327,57.535801 311.822723,60.618031 
	C311.294464,64.964882 306.964508,67.423096 302.930054,65.711227 
	C301.996796,65.315224 301.243469,63.477489 301.171570,62.258125 
	C300.948517,58.474262 301.093231,54.668716 301.107178,50.414867 
z"/>
<path fill="#FAF2F2" opacity="1.000000" stroke="none" 
	d="
M312.075378,31.423035 
	C312.189911,39.677998 309.649780,42.542477 303.848389,40.959187 
	C302.834106,40.682381 301.405548,39.495464 301.331390,38.629292 
	C301.036499,35.185749 300.868988,31.662020 301.286407,28.245213 
	C301.754272,24.415049 305.168884,25.280006 307.113434,26.146223 
	C309.078430,27.021547 310.407104,29.325247 312.075378,31.423035 
z"/>
<path fill="#FBF6F5" opacity="1.000000" stroke="none" 
	d="
M434.004272,65.817940 
	C432.693024,64.546234 431.065826,63.296898 431.040436,62.015850 
	C430.833679,51.574074 430.805847,41.123577 431.048981,30.683313 
	C431.088470,28.988499 433.092529,25.802307 433.574097,25.915663 
	C435.908386,26.465137 438.163666,27.719643 440.161713,29.128750 
	C440.865997,29.625435 440.981598,31.270863 440.987793,32.393875 
	C441.038818,41.678387 441.092041,50.964806 440.948181,60.247597 
	C440.885132,64.314384 438.507568,66.189774 434.004272,65.817940 
z"/>
<path fill="#EFEFEF" opacity="1.000000" stroke="none" 
	d="
M336.892487,44.725449 
	C337.532867,41.710159 338.106689,39.111900 338.680542,36.513641 
	C339.408142,36.507847 340.135742,36.502056 340.863373,36.496262 
	C341.755981,42.027710 342.767487,47.548019 343.289001,53.114231 
	C343.326019,53.509373 339.759491,54.641903 337.873352,54.630657 
	C337.061829,54.625820 335.616119,52.585228 335.597778,51.451107 
	C335.563934,49.355389 336.369873,47.246113 336.892487,44.725449 
z"/>
<path fill="#EFEFEF" opacity="1.000000" stroke="none" 
	d="
M236.841644,472.018036 
	C237.861755,467.759613 238.881851,463.501160 239.901962,459.242706 
	C240.473770,459.233429 241.045578,459.224121 241.617386,459.214813 
	C241.992279,464.770172 242.367157,470.325562 242.121231,475.910889 
	C241.335938,476.005188 241.171478,476.069550 241.007019,476.133911 
	C239.537949,475.527466 238.068878,474.921021 236.701385,473.778870 
	C236.815842,472.834747 236.828735,472.426392 236.841644,472.018036 
z"/>
<path fill="#302126" opacity="1.000000" stroke="none" 
	d="
M230.406036,488.734802 
	C230.555542,488.856018 230.575745,489.066193 230.595947,489.276367 
	C230.489548,489.125488 230.383148,488.974640 230.406036,488.734802 
z"/>
<path fill="#302126" opacity="1.000000" stroke="none" 
	d="
M236.623642,472.250427 
	C236.828735,472.426392 236.815842,472.834747 236.601929,473.483826 
	C236.402512,473.310638 236.404083,472.896729 236.623642,472.250427 
z"/>
<path fill="#302126" opacity="1.000000" stroke="none" 
	d="
M241.095779,476.287354 
	C241.171478,476.069550 241.335938,476.005188 241.746613,476.038391 
	C241.723404,476.237610 241.453964,476.339203 241.095779,476.287354 
z"/>
<path fill="#EEDAAC" opacity="1.000000" stroke="none" 
	d="
M299.254425,299.847595 
	C298.879547,299.424561 298.725311,298.856262 298.802368,298.147400 
	C299.180817,298.572021 299.327942,299.137177 299.254425,299.847595 
z"/>
<path fill="#F9D39F" opacity="1.000000" stroke="none" 
	d="
M210.710144,307.201050 
	C211.039429,309.427521 211.022034,311.812225 210.926682,314.643250 
	C207.529953,312.711029 208.638565,310.054504 210.710144,307.201050 
z"/>
<path fill="#F9D39F" opacity="1.000000" stroke="none" 
	d="
M210.548813,329.962646 
	C210.880096,330.391510 210.929062,330.884399 210.896820,331.742798 
	C210.632553,331.414429 210.449524,330.720581 210.548813,329.962646 
z"/>
<path fill="#F9D39F" opacity="1.000000" stroke="none" 
	d="
M210.570770,334.925385 
	C210.845428,335.088654 210.884094,335.293854 210.864853,335.807831 
	C210.407440,335.911987 210.007919,335.707367 209.608398,335.502747 
	C209.850510,335.324249 210.092636,335.145782 210.570770,334.925385 
z"/>
<path fill="#2C273C" opacity="1.000000" stroke="none" 
	d="
M275.099243,364.116089 
	C275.311615,362.654205 275.523987,361.192352 275.723145,358.910522 
	C275.600952,346.346313 275.491974,334.602020 275.382996,322.857727 
	C275.440216,322.455048 275.497406,322.052338 275.536285,320.924988 
	C275.470215,318.447144 275.422424,316.693939 275.374634,314.940735 
	C275.514862,312.570251 275.655090,310.199738 275.837341,306.996887 
	C275.790497,303.753082 275.701630,301.341705 275.612732,298.930298 
	C275.670227,297.253876 275.727722,295.577423 275.837219,293.071655 
	C275.799957,290.805206 275.710663,289.368103 275.621399,287.931000 
	C275.679230,281.948425 275.737091,275.965881 275.841614,269.068787 
	C275.932129,260.552612 275.991394,252.950974 276.009247,245.349258 
	C276.013855,243.383179 276.386566,240.956192 272.988647,242.072983 
	C272.039795,241.217560 271.090973,240.362152 270.142120,239.506714 
	C271.179108,238.950974 272.162964,238.115494 273.265717,237.906204 
	C274.849365,237.605667 276.519562,237.761383 278.729309,238.051666 
	C279.614288,238.932770 279.922791,239.484512 280.231262,240.036270 
	C280.143463,240.467804 280.055725,240.899338 279.867004,241.904251 
	C279.809906,242.651855 279.853821,242.826080 279.897766,243.000320 
	C279.785095,246.054306 279.672424,249.108307 279.490356,252.984299 
	C279.518890,269.566254 279.616882,285.326202 279.714874,301.086151 
	C279.645142,302.529175 279.575409,303.972198 279.559204,306.058014 
	C279.679443,306.893158 279.746155,307.085480 279.812805,307.277802 
	C279.747833,325.245728 279.670135,343.213623 279.648987,361.181580 
	C279.647705,362.274902 279.925751,363.446136 280.380096,364.441284 
	C280.864502,365.502289 281.712952,366.397064 282.402466,367.364441 
	C280.921448,367.851868 279.350067,368.918152 277.978577,368.704041 
	C275.274200,368.281830 271.323395,370.997070 270.457825,365.570801 
	C272.224457,364.757080 273.661865,364.436584 275.099243,364.116089 
z"/>
<path fill="#262A49" opacity="1.000000" stroke="none" 
	d="
M263.954987,249.997818 
	C265.309753,251.004196 266.664520,252.010574 268.022003,253.741486 
	C267.252747,256.248566 266.945099,258.661713 265.593445,259.656982 
	C263.830231,260.955261 260.742126,262.205933 259.152069,261.470551 
	C257.705231,260.801392 256.951385,257.473053 256.858093,255.275864 
	C256.653992,250.467072 260.092651,249.767319 263.954987,249.997818 
z"/>
<path fill="#3B3340" opacity="1.000000" stroke="none" 
	d="
M256.830933,302.701294 
	C252.856018,297.478210 252.860870,294.813202 257.047272,289.690369 
	C257.240479,289.404022 257.197784,289.281433 257.504211,289.274475 
	C258.403015,288.865967 258.995392,288.464386 259.587769,288.062805 
	C261.811218,288.677185 264.034668,289.291565 266.755859,290.307434 
	C270.028900,293.911377 270.249664,297.293732 267.670349,300.647064 
	C264.767426,304.421112 260.988831,304.447693 256.912140,302.748199 
	C256.885559,302.731720 256.830933,302.701294 256.830933,302.701294 
M257.944275,292.604950 
	C258.223724,295.466400 258.249542,298.400177 259.025330,301.120026 
	C259.158905,301.588470 263.485504,301.870239 264.125366,300.980194 
	C265.570496,298.970123 267.177429,295.676392 266.437683,293.807739 
	C265.174805,290.617615 261.762634,290.067413 257.944275,292.604950 
z"/>
<path fill="#CBA78C" opacity="1.000000" stroke="none" 
	d="
M280.020935,300.881775 
	C279.616882,285.326202 279.518890,269.566254 279.597351,253.361755 
	C280.168304,253.929733 280.901398,254.940628 280.906311,255.955017 
	C280.975464,270.249725 280.953064,284.544983 280.913666,298.839966 
	C280.911987,299.452972 280.531189,300.064911 280.020935,300.881775 
z"/>
<path fill="#3B3340" opacity="1.000000" stroke="none" 
	d="
M263.736389,249.776459 
	C260.092651,249.767319 256.653992,250.467072 256.858093,255.275864 
	C256.951385,257.473053 257.705231,260.801392 259.152069,261.470551 
	C260.742126,262.205933 263.830231,260.955261 265.593445,259.656982 
	C266.945099,258.661713 267.252747,256.248566 268.085754,254.063202 
	C271.042694,256.978394 268.888885,259.512878 266.647003,261.749847 
	C263.440674,264.949158 259.896454,264.664581 256.099609,261.918701 
	C253.546677,258.043549 253.030762,254.366394 256.356567,250.479553 
	C258.890717,249.958878 261.204254,249.756973 263.736389,249.776459 
z"/>
<path fill="#CBA78C" opacity="1.000000" stroke="none" 
	d="
M273.065552,242.479950 
	C276.386566,240.956192 276.013855,243.383179 276.009247,245.349258 
	C275.991394,252.950974 275.932129,260.552612 275.757690,268.612732 
	C275.109314,267.345825 274.248474,265.642792 274.134094,263.891052 
	C273.677338,256.897919 273.452850,249.889618 273.065552,242.479950 
z"/>
<path fill="#F9D39F" opacity="1.000000" stroke="none" 
	d="
M256.938721,302.764679 
	C260.988831,304.447693 264.767426,304.421112 267.670349,300.647064 
	C270.249664,297.293732 270.028900,293.911377 267.088562,290.409607 
	C268.052277,290.638824 270.170288,291.204803 270.151917,291.689880 
	C270.016144,295.275513 269.684448,298.895508 268.915802,302.395203 
	C268.601654,303.825500 267.051880,304.984344 266.026001,306.615234 
	C263.952698,306.977051 261.917542,306.990295 259.390381,306.644043 
	C258.245148,305.111237 257.591949,303.937958 256.938721,302.764679 
z"/>
<path fill="#CBA78C" opacity="1.000000" stroke="none" 
	d="
M275.290161,299.051086 
	C275.701630,301.341705 275.790497,303.753082 275.761719,306.606506 
	C275.032593,307.050690 274.421143,307.052856 273.510254,307.033508 
	C273.796387,304.398651 274.381989,301.785248 275.290161,299.051086 
z"/>
<path fill="#CBA78C" opacity="1.000000" stroke="none" 
	d="
M275.309601,288.044189 
	C275.710663,289.368103 275.799957,290.805206 275.758728,292.658630 
	C275.418030,291.435760 275.207916,289.796600 275.309601,288.044189 
z"/>
<path fill="#CBA78C" opacity="1.000000" stroke="none" 
	d="
M280.511688,239.979294 
	C279.922791,239.484512 279.614288,238.932770 279.178223,238.091766 
	C279.813721,237.894882 280.576813,237.987244 281.339905,238.079590 
	C281.157318,238.693832 280.974701,239.308075 280.511688,239.979294 
z"/>
<path fill="#F9D39F" opacity="1.000000" stroke="none" 
	d="
M259.206726,288.077026 
	C258.995392,288.464386 258.403015,288.865967 257.439941,289.265503 
	C257.654724,288.872772 258.240204,288.482025 259.206726,288.077026 
z"/>
<path fill="#CBA78C" opacity="1.000000" stroke="none" 
	d="
M280.087555,307.218445 
	C279.746155,307.085480 279.679443,306.893158 279.673767,306.401550 
	C280.051178,306.267151 280.367554,306.431976 280.802368,306.846558 
	C280.734680,307.117188 280.548462,307.138123 280.087555,307.218445 
z"/>
<path fill="#CBA78C" opacity="1.000000" stroke="none" 
	d="
M280.085449,242.932922 
	C279.853821,242.826080 279.809906,242.651855 279.883118,242.234772 
	C280.166748,242.175491 280.350555,242.347717 280.485107,242.552338 
	C280.511719,242.592773 280.348694,242.757904 280.085449,242.932922 
z"/>
<path fill="#3B3340" opacity="1.000000" stroke="none" 
	d="
M244.016327,274.124939 
	C243.988235,275.462128 243.960144,276.799316 243.280472,278.364990 
	C234.447433,278.539124 226.266006,278.484772 218.084564,278.430389 
	C217.958817,277.189819 217.833069,275.949249 218.316406,274.437012 
	C227.289108,274.151886 235.652725,274.138428 244.016327,274.124939 
z"/>
<path fill="#28181D" opacity="1.000000" stroke="none" 
	d="
M218.106689,258.655121 
	C216.924347,256.508026 217.340286,255.141571 219.995453,255.121918 
	C227.548615,255.066071 235.103790,255.002441 242.653366,255.164993 
	C243.414429,255.181381 244.142807,256.715729 244.413483,258.056885 
	C235.329315,258.597137 226.718002,258.626129 218.106689,258.655121 
z"/>
<path fill="#3B3340" opacity="1.000000" stroke="none" 
	d="
M216.898682,296.106537 
	C218.225937,295.158966 219.540161,294.265533 220.874207,294.234894 
	C227.700943,294.078033 234.535019,294.052032 241.360733,294.218536 
	C242.545776,294.247437 243.702957,295.418823 244.873032,296.062500 
	C243.820526,296.836639 242.785980,298.251221 241.712616,298.281311 
	C234.554871,298.482025 227.387115,298.466034 220.227386,298.306396 
	C219.104080,298.281342 218.005035,297.168488 216.898682,296.106537 
M223.183075,295.968689 
	C222.479660,296.079956 221.776245,296.191223 221.072845,296.302490 
	C221.089859,296.430634 221.106888,296.558777 221.123917,296.686920 
	C227.693329,296.686920 234.262756,296.686920 240.832184,296.686920 
	C240.833038,296.447449 240.833893,296.207947 240.834747,295.968475 
	C235.234787,295.968475 229.634827,295.968475 223.183075,295.968689 
z"/>
<path fill="#EFE3B8" opacity="1.000000" stroke="none" 
	d="
M218.142944,259.078186 
	C226.718002,258.626129 235.329315,258.597137 244.382538,258.430664 
	C243.962891,259.188873 243.120956,260.838470 242.236725,260.861450 
	C234.809311,261.054688 227.373672,260.982300 219.942245,260.872711 
	C219.347931,260.863953 218.766571,259.979034 218.142944,259.078186 
z"/>
<path fill="#EFE3B8" opacity="1.000000" stroke="none" 
	d="
M243.932037,273.716919 
	C235.652725,274.138428 227.289108,274.151886 218.455643,274.173462 
	C218.712799,273.463959 219.429260,272.135895 220.168488,272.123108 
	C227.585785,271.994507 235.007141,272.059937 242.426132,272.159943 
	C242.905075,272.166382 243.374100,272.908844 243.932037,273.716919 
z"/>
<path fill="#EFE3B8" opacity="1.000000" stroke="none" 
	d="
M218.260925,278.831848 
	C226.266006,278.484772 234.447433,278.539124 243.059265,278.616638 
	C243.605423,279.033966 243.721207,279.428131 243.837006,279.822266 
	C235.370422,279.625946 226.903854,279.429626 218.260925,278.831848 
z"/>
<path fill="#F1BE8C" opacity="1.000000" stroke="none" 
	d="
M256.912140,302.748199 
	C257.591949,303.937958 258.245148,305.111237 258.954590,306.620697 
	C257.942596,306.989716 256.874451,307.022552 255.406372,307.029175 
	C255.351105,305.686951 255.695755,304.370972 256.435669,302.878143 
	C256.830933,302.701294 256.885559,302.731720 256.912140,302.748199 
z"/>
<path fill="#302B3F" opacity="1.000000" stroke="none" 
	d="
M255.317566,340.230652 
	C252.705368,336.390137 252.743866,332.904633 256.402985,329.515747 
	C257.874481,328.808136 259.340820,327.785889 260.355133,328.123138 
	C263.131531,329.046234 266.917847,329.897247 268.042023,331.991272 
	C269.169250,334.091003 268.297546,338.055969 266.975800,340.480408 
	C265.275391,343.599365 261.765594,343.664398 258.555786,342.234039 
	C257.512909,341.769318 256.622131,340.963440 255.317566,340.230652 
z"/>
<path fill="#EF9B50" opacity="1.000000" stroke="none" 
	d="
M274.954010,322.957001 
	C275.491974,334.602020 275.600952,346.346313 275.585083,358.546021 
	C274.640625,358.651398 273.107117,358.305786 273.104919,357.950714 
	C273.035828,346.753571 273.100372,335.555298 273.229584,324.358154 
	C273.234650,323.919281 274.074249,323.490021 274.954010,322.957001 
z"/>
<path fill="#EF9B50" opacity="1.000000" stroke="none" 
	d="
M274.967407,315.006409 
	C275.422424,316.693939 275.470215,318.447144 275.436615,320.633209 
	C271.571869,319.534760 272.448669,317.385315 274.967407,315.006409 
z"/>
<path fill="#EF9B50" opacity="1.000000" stroke="none" 
	d="
M274.853638,363.821960 
	C273.661865,364.436584 272.224457,364.757080 270.434235,365.193268 
	C270.509155,361.967651 272.635010,362.941864 274.853638,363.821960 
z"/>
<path fill="#3B3340" opacity="1.000000" stroke="none" 
	d="
M229.033997,333.469543 
	C233.346756,333.473206 237.182617,333.289581 240.980637,333.587738 
	C242.240875,333.686707 243.403870,335.024323 244.611328,335.795624 
	C243.471436,336.494873 242.346649,337.768738 241.189194,337.799133 
	C234.216797,337.982178 227.234039,337.977112 220.262589,337.770660 
	C219.199081,337.739197 218.176224,336.334686 217.134583,335.565186 
	C218.113129,334.880035 219.041885,333.709686 220.079803,333.603241 
	C222.875763,333.316376 225.718292,333.483276 229.033997,333.469543 
z"/>
<path fill="#3B3340" opacity="1.000000" stroke="none" 
	d="
M242.441040,357.946472 
	C235.024765,357.974823 228.044891,358.070251 221.073730,357.867004 
	C219.751740,357.828461 218.464279,356.605652 217.160919,355.929260 
	C218.460754,355.234039 219.745117,353.974060 221.062988,353.937988 
	C228.027954,353.747345 235.002640,353.803802 241.970398,353.947357 
	C242.914886,353.966797 243.839386,354.958008 244.773132,355.499237 
	C244.142258,356.302765 243.511368,357.106323 242.441040,357.946472 
z"/>
<path fill="#3B3340" opacity="1.000000" stroke="none" 
	d="
M241.669250,318.332825 
	C234.405563,318.295959 227.605194,318.374237 220.815979,318.135040 
	C219.583313,318.091614 218.396439,316.748871 217.188446,316.005951 
	C218.366608,315.386719 219.531784,314.262085 220.725098,314.231445 
	C227.682907,314.052521 234.648560,314.062988 241.608276,314.189819 
	C242.720566,314.210083 243.816284,315.139923 244.919647,315.649292 
	C243.991898,316.545837 243.064148,317.442413 241.669250,318.332825 
z"/>
<path fill="#262A49" opacity="1.000000" stroke="none" 
	d="
M258.229553,292.312317 
	C261.762634,290.067413 265.174805,290.617615 266.437683,293.807739 
	C267.177429,295.676392 265.570496,298.970123 264.125366,300.980194 
	C263.485504,301.870239 259.158905,301.588470 259.025330,301.120026 
	C258.249542,298.400177 258.223724,295.466400 258.229553,292.312317 
z"/>
<path fill="#262A49" opacity="1.000000" stroke="none" 
	d="
M223.608978,295.968567 
	C229.634827,295.968475 235.234787,295.968475 240.834747,295.968475 
	C240.833893,296.207947 240.833038,296.447449 240.832184,296.686920 
	C234.262756,296.686920 227.693329,296.686920 221.123917,296.686920 
	C221.106888,296.558777 221.089859,296.430634 221.072845,296.302490 
	C221.776245,296.191223 222.479660,296.079956 223.608978,295.968567 
z"/>
</svg>